<?xml version="1.0" standalone="no"?>
<!DOCTYPE svg PUBLIC "-//W3C//DTD SVG 20010904//EN"
 "http://www.w3.org/TR/2001/REC-SVG-20010904/DTD/svg10.dtd">
<svg version="1.0" xmlns="http://www.w3.org/2000/svg"
 width="720.000000pt" height="720.000000pt" viewBox="0 0 720.000000 720.000000"
 preserveAspectRatio="xMidYMid meet">
<metadata>
Created by potrace 1.14, written by Peter Selinger 2001-2017
</metadata>
<g transform="translate(0.000000,720.000000) scale(0.100000,-0.100000)"
fill="#000000" stroke="none">
<path d="M2 6448 l3 -753 25 -1 c40 -2 41 -3 31 -23 -13 -24 -3 -34 18 -18 14
11 14 10 2 -6 -10 -13 -22 -16 -46 -11 l-33 6 -1 -239 c0 -149 3 -232 9 -223
5 8 12 11 16 8 4 -4 20 2 35 13 29 20 38 39 19 39 -5 0 -10 -7 -10 -15 0 -8
-4 -15 -10 -15 -26 0 5 60 31 60 8 0 -4 12 -26 25 l-40 25 42 -5 c44 -5 68 9
33 20 -37 12 -22 28 19 21 46 -7 65 9 35 31 -16 12 -20 11 -31 -3 -10 -14 -14
-14 -25 -3 -14 15 -21 82 -8 74 4 -3 7 9 5 26 -1 17 -7 34 -13 38 -6 3 -16 20
-23 36 -9 23 -13 26 -16 13 -3 -10 -12 -18 -21 -18 -12 0 -13 3 -4 12 7 7 12
23 12 36 0 22 3 24 34 19 22 -4 36 -1 39 6 3 9 8 9 17 0 11 -10 18 -7 37 14
21 22 26 62 5 49 -4 -2 -8 27 -8 66 -1 67 0 70 15 50 11 -15 23 -20 38 -16 23
6 41 36 24 42 -5 2 -7 10 -4 18 5 13 7 13 14 2 7 -10 9 -9 9 5 0 9 5 17 10 17
6 0 10 -6 10 -14 0 -8 14 -22 32 -30 35 -18 58 -20 58 -6 0 5 -6 7 -13 4 -8
-3 -20 2 -27 11 -7 8 -20 15 -29 15 -14 1 -14 2 0 13 23 18 31 47 14 47 -8 0
-15 5 -15 10 0 6 -4 10 -10 10 -5 0 -10 -11 -10 -25 0 -14 -4 -25 -9 -25 -16
0 -21 58 -6 86 13 26 13 26 17 3 3 -20 9 -23 57 -23 47 -1 54 2 57 19 2 11 -6
35 -16 53 -11 17 -15 32 -11 32 5 0 11 -7 15 -15 8 -23 28 -18 21 5 -3 11 -2
20 4 20 5 0 9 9 8 20 -1 12 -8 20 -19 20 -19 0 -24 -15 -8 -23 6 -3 5 -4 -2
-3 -9 2 -12 17 -10 43 2 36 -1 42 -23 47 -36 9 -31 27 6 19 21 -4 34 -1 40 8
7 11 9 11 9 1 0 -7 5 -10 10 -7 6 3 18 -1 27 -11 16 -16 16 -16 -2 -11 -27 9
-47 -4 -35 -23 8 -13 10 -12 10 3 0 9 5 17 10 17 6 0 10 -4 10 -10 0 -15 19
-12 36 5 9 8 24 15 35 15 15 0 19 6 17 23 -2 16 2 22 17 23 11 1 33 6 49 13
18 7 33 8 40 2 7 -6 18 -4 31 6 19 15 19 15 -7 9 -17 -4 -28 -1 -32 7 -5 9 -7
9 -12 0 -10 -22 -26 -14 -19 8 7 21 5 21 -51 16 -55 -6 -54 -2 4 18 12 4 25
18 28 31 3 13 10 24 15 24 10 0 7 -29 -4 -47 -5 -8 -4 -13 2 -13 6 0 11 3 11
8 0 4 20 16 45 27 47 20 55 32 30 41 -11 4 -12 11 -5 24 8 15 6 17 -10 13 -15
-4 -19 -1 -15 9 4 10 15 13 33 10 23 -4 25 -3 15 10 -15 18 -7 28 21 28 26 0
8 20 -20 22 -15 2 -20 10 -20 40 -1 21 2 35 7 32 5 -3 6 2 3 10 -3 9 -1 16 5
16 11 0 13 -6 15 -42 2 -26 21 -26 24 0 2 12 -1 22 -7 22 -6 0 -11 8 -11 17 0
9 -10 27 -22 40 -12 13 -16 23 -10 23 7 0 12 -4 12 -10 0 -5 7 -10 16 -10 8 0
12 -5 9 -11 -4 -6 2 -13 14 -16 12 -3 21 -9 21 -14 0 -5 9 -9 20 -9 11 0 20 5
20 10 0 14 51 4 62 -12 8 -10 11 -10 15 0 12 29 22 8 16 -37 -4 -33 -2 -51 7
-56 9 -6 10 1 5 26 -6 27 -5 32 5 22 19 -17 56 11 64 47 3 17 11 30 17 30 6 0
9 -6 6 -14 -4 -10 0 -14 12 -13 14 1 17 10 15 59 -1 32 3 61 9 65 6 4 3 9 -8
13 -18 6 -17 7 3 12 12 4 20 2 17 -2 -11 -18 16 -21 33 -4 15 16 15 17 0 12
-22 -9 -31 17 -17 45 9 16 9 22 0 25 -6 2 -11 13 -10 25 0 22 0 22 9 0 5 -13
18 -23 29 -23 11 0 27 -10 35 -22 9 -12 16 -17 16 -11 0 13 -50 63 -61 63 -15
0 5 40 20 41 10 0 7 4 -9 12 -35 16 -36 17 -20 27 20 13 60 12 60 -1 0 -5 5
-7 11 -3 8 4 9 0 4 -15 -5 -16 -3 -20 9 -15 8 3 12 12 10 19 -3 7 -1 16 5 19
6 4 8 13 4 21 -4 11 2 15 21 15 14 0 26 5 26 11 0 5 -8 9 -17 8 -10 -1 -27 2
-38 7 -19 8 -19 8 5 14 21 5 24 11 25 53 1 52 14 77 16 31 1 -16 3 -22 6 -13
3 12 14 17 38 16 29 -1 35 -5 40 -28 4 -19 11 -26 21 -22 8 3 13 11 10 18 -9
25 13 38 68 40 32 1 68 -4 81 -11 23 -12 25 -11 25 11 0 15 -11 30 -30 42 -22
14 -27 22 -20 33 5 8 10 10 10 5 0 -6 14 -19 30 -28 24 -15 30 -15 30 -4 0 23
24 39 38 25 16 -16 34 2 22 22 -6 10 -32 16 -81 18 -51 3 -70 1 -65 -7 4 -6 2
-11 -3 -11 -6 0 -11 5 -11 10 0 12 -102 13 -115 1 -6 -4 -22 -11 -37 -15 -21
-5 -28 -3 -28 9 0 13 -76 14 -610 15 l-611 0 3 -752z m1195 701 c-8 -21 -13
-26 -15 -15 -2 10 2 23 8 31 18 22 20 18 7 -16z m278 21 c3 -5 1 -10 -4 -10
-6 0 -11 5 -11 10 0 6 2 10 4 10 3 0 8 -4 11 -10z m-124 -9 c5 8 9 11 9 7 0
-3 2 -12 5 -20 6 -15 -41 -18 -63 -4 -9 5 -18 1 -27 -10 -14 -18 -14 -17 -15
7 0 26 1 27 41 16 33 -8 43 -7 50 4z m-63 -55 c-7 -8 -15 -12 -17 -11 -5 6 10
25 20 25 5 0 4 -6 -3 -14z m62 4 c0 -5 -2 -10 -4 -10 -3 0 -8 5 -11 10 -3 6
-1 10 4 10 6 0 11 -4 11 -10z m60 0 c0 -5 -2 -10 -4 -10 -3 0 -8 5 -11 10 -3
6 -1 10 4 10 6 0 11 -4 11 -10z m-265 -70 c3 -5 2 -10 -4 -10 -5 0 -13 5 -16
10 -3 6 -2 10 4 10 5 0 13 -4 16 -10z m-95 -97 c0 -7 -12 -11 -30 -10 -28 2
-36 8 -26 18 10 10 56 3 56 -8z m47 11 c-3 -3 -12 -4 -19 -1 -8 3 -5 6 6 6 11
1 17 -2 13 -5z m38 -4 c3 -5 -1 -10 -9 -10 -9 0 -16 5 -16 10 0 6 4 10 9 10 6
0 13 -4 16 -10z m-114 -73 c-10 -9 -11 -8 -5 6 3 10 9 15 12 12 3 -3 0 -11 -7
-18z m-70 -39 l0 -23 9 23 c5 12 14 22 20 22 14 0 13 -17 -1 -26 -8 -5 -4 -13
12 -26 24 -19 24 -20 2 -15 -24 5 -33 -7 -25 -36 3 -10 11 -16 18 -13 7 3 16
1 19 -4 5 -9 -19 -15 -28 -7 -2 1 -11 -4 -21 -12 -14 -12 -16 -12 -12 0 2 8 7
29 10 47 5 30 4 33 -14 27 -11 -4 -20 -2 -20 4 0 6 5 11 12 11 9 0 9 3 1 11
-12 12 -7 39 8 39 5 0 9 -10 10 -22z m-67 -34 c5 -14 4 -15 -9 -4 -17 14 -19
20 -6 20 5 0 12 -7 15 -16z m131 -34 c-3 -5 -12 -10 -18 -10 -7 0 -6 4 3 10
19 12 23 12 15 0z m-405 -26 c13 -33 -3 -64 -33 -63 -12 0 -16 3 -9 6 6 2 12
11 12 19 0 8 5 14 11 14 7 0 9 10 5 25 -8 33 2 32 14 -1z m263 -15 c3 -12 3
-18 0 -15 -3 3 -12 -2 -19 -12 -12 -16 -13 -16 -14 3 0 16 -2 17 -10 5 -5 -8
-12 -11 -15 -8 -13 12 7 29 26 23 13 -4 19 -2 19 9 0 22 7 20 13 -5z m37 7 c0
-3 -4 -8 -10 -11 -5 -3 -10 -1 -10 4 0 6 5 11 10 11 6 0 10 -2 10 -4z m30 0
c0 -3 -4 -8 -10 -11 -5 -3 -10 -1 -10 4 0 6 5 11 10 11 6 0 10 -2 10 -4z m-66
-80 c-7 -19 -48 -23 -41 -3 2 6 11 11 21 9 9 -2 16 3 16 9 0 7 2 10 5 7 3 -3
3 -13 -1 -22z m110 -21 c-4 -8 -8 -15 -10 -15 -2 0 -4 7 -4 15 0 8 4 15 10 15
5 0 7 -7 4 -15z m-110 -7 c30 -2 40 -8 47 -26 5 -13 9 -24 9 -26 0 -1 -9 -2
-20 -3 -13 -1 -20 4 -20 16 0 13 -9 17 -36 18 -19 1 -38 3 -41 6 -7 8 7 28 16
23 4 -3 25 -6 45 -8z m-87 -22 c-6 -17 -38 -20 -48 -4 -14 21 -11 25 21 20 17
-2 29 -9 27 -16z m-137 -37 c0 -5 -4 -9 -10 -9 -5 0 -10 7 -10 16 0 8 5 12 10
9 6 -3 10 -10 10 -16z m0 -34 c0 -8 -2 -15 -4 -15 -2 0 -6 7 -10 15 -3 8 -1
15 4 15 6 0 10 -7 10 -15z m-102 -135 c-1 -16 -5 -30 -10 -30 -9 0 -10 7 -2
38 9 30 13 28 12 -8z m-48 -5 c-7 -8 -17 -12 -22 -9 -5 3 -1 12 9 19 22 17 30
11 13 -10z m110 -29 c0 -5 -7 -1 -15 10 -8 10 -14 24 -14 29 0 6 6 1 14 -9 8
-11 15 -24 15 -30z m-473 -38 c-3 -8 -6 -5 -6 6 -1 11 2 17 5 13 3 -3 4 -12 1
-19z m358 2 c3 -5 1 -10 -4 -10 -6 0 -11 5 -11 10 0 6 2 10 4 10 3 0 8 -4 11
-10z m45 -11 c0 -5 -4 -9 -10 -9 -5 0 -10 7 -10 16 0 8 5 12 10 9 6 -3 10 -10
10 -16z m-240 -49 c0 -5 -7 -10 -16 -10 -8 0 -12 5 -9 10 3 6 10 10 16 10 5 0
9 -4 9 -10z m210 -31 c0 -5 -11 -8 -24 -7 -14 1 -22 7 -19 14 5 13 43 7 43 -7z
m-155 1 c3 -5 -3 -10 -14 -10 -14 0 -19 -5 -15 -14 4 -11 0 -13 -15 -9 -16 4
-19 9 -11 18 5 6 7 15 3 18 -3 4 5 7 20 7 14 0 29 -4 32 -10z m85 6 c0 -3 -4
-8 -10 -11 -5 -3 -10 -1 -10 4 0 6 5 11 10 11 6 0 10 -2 10 -4z m20 -37 c0 -6
7 -9 15 -5 13 5 14 2 4 -15 -10 -20 -12 -20 -30 -3 -10 9 -16 21 -13 25 7 13
24 11 24 -2z m-260 -49 c0 -5 -4 -10 -10 -10 -5 0 -10 5 -10 10 0 6 5 10 10
10 6 0 10 -4 10 -10z m87 4 c-3 -3 -12 -4 -19 -1 -8 3 -5 6 6 6 11 1 17 -2 13
-5z m-29 -59 c0 -14 -4 -25 -9 -25 -5 0 -9 11 -9 25 0 14 4 25 9 25 5 0 9 -11
9 -25z m67 16 c-3 -5 -1 -12 5 -16 6 -4 8 -11 5 -16 -4 -5 -1 -9 6 -9 7 0 10
-2 7 -5 -8 -9 -58 17 -52 26 3 5 -3 10 -13 10 -10 1 -4 5 12 9 17 4 31 8 33 9
2 0 1 -3 -3 -8z m-159 -57 c-18 -18 -26 -18 -26 0 0 15 20 26 33 19 4 -2 1
-11 -7 -19z m41 -6 c-3 -8 -6 -5 -6 6 -1 11 2 17 5 13 3 -3 4 -12 1 -19z m-97
-13 c0 -14 -4 -25 -10 -25 -5 0 -10 11 -10 25 0 14 5 25 10 25 6 0 10 -11 10
-25z m160 -20 c0 -15 -6 -25 -14 -25 -11 0 -12 5 -3 25 15 31 17 31 17 0z
m-70 -105 c0 -5 -2 -10 -4 -10 -3 0 -8 5 -11 10 -3 6 -1 10 4 10 6 0 11 -4 11
-10z m40 -30 c0 -5 -4 -10 -10 -10 -5 0 -10 5 -10 10 0 6 5 10 10 10 6 0 10
-4 10 -10z m-68 -38 c3 -11 0 -19 -7 -19 -7 0 -10 8 -7 19 2 10 6 18 7 18 1 0
5 -8 7 -18z m-32 -62 c0 -5 -7 -10 -15 -10 -8 0 -15 5 -15 10 0 6 7 10 15 10
8 0 15 -4 15 -10z m0 -46 c0 -14 -12 -19 -23 -8 -9 9 4 35 14 28 5 -3 9 -12 9
-20z m-60 -273 c0 -6 -4 -13 -10 -16 -5 -3 -10 1 -10 9 0 9 5 16 10 16 6 0 10
-4 10 -9z m-38 -223 c-7 -7 -12 -8 -12 -2 0 14 12 26 19 19 2 -3 -1 -11 -7
-17z"/>
<path d="M1248 7193 c6 -2 18 -2 25 0 6 3 1 5 -13 5 -14 0 -19 -2 -12 -5z"/>
<path d="M1610 7180 c0 -5 11 -10 25 -10 14 0 25 5 25 10 0 6 -11 10 -25 10
-14 0 -25 -4 -25 -10z"/>
<path d="M1681 7174 c0 -11 3 -14 6 -6 3 7 2 16 -1 19 -3 4 -6 -2 -5 -13z"/>
<path d="M1210 7050 c0 -3 5 -11 12 -18 9 -9 9 -12 0 -12 -7 0 -12 -4 -12 -10
0 -5 7 -10 15 -10 9 0 15 -7 13 -16 -2 -10 2 -19 9 -21 11 -4 12 31 4 89 -1 8
-41 6 -41 -2z"/>
<path d="M1400 7050 c0 -5 5 -10 11 -10 5 0 7 5 4 10 -3 6 -8 10 -11 10 -2 0
-4 -4 -4 -10z"/>
<path d="M1280 6961 c0 -25 6 -27 13 -6 4 8 2 17 -3 20 -6 4 -10 -3 -10 -14z"/>
<path d="M1164 6899 c-9 -15 -2 -18 20 -9 17 6 18 7 3 13 -9 3 -19 2 -23 -4z"/>
<path d="M1138 6813 c7 -3 16 -2 19 1 4 3 -2 6 -13 5 -11 0 -14 -3 -6 -6z"/>
<path d="M1191 6778 c1 -18 2 -19 6 -5 2 9 9 15 14 12 5 -4 9 -1 9 4 0 6 -7
11 -15 11 -9 0 -15 -9 -14 -22z"/>
<path d="M1136 6773 c-6 -14 -5 -15 5 -6 7 7 10 15 7 18 -3 3 -9 -2 -12 -12z"/>
<path d="M1081 6734 c0 -11 3 -14 6 -6 3 7 2 16 -1 19 -3 4 -6 -2 -5 -13z"/>
<path d="M2437 6713 c-4 -3 -24 -6 -44 -5 -22 1 -44 -5 -55 -15 -10 -9 -18
-13 -18 -8 0 4 -6 2 -14 -4 -11 -9 -16 -9 -22 0 -5 9 -11 7 -21 -6 -12 -18
-13 -18 -13 -1 0 25 -24 14 -28 -12 -4 -23 -19 -23 -80 -1 -66 25 -111 7 -172
-68 -25 -31 -51 -61 -57 -69 -7 -7 -13 -16 -13 -20 0 -4 -9 -18 -21 -30 -18
-19 -28 -21 -84 -17 -107 9 -165 -3 -211 -43 -80 -71 -104 -96 -104 -109 0
-24 -33 -40 -89 -42 -108 -4 -121 -8 -137 -39 -25 -48 -64 -94 -80 -94 -7 0
-14 -7 -14 -15 0 -8 -9 -24 -20 -35 -11 -11 -20 -24 -20 -29 0 -5 -3 -11 -7
-13 -5 -1 -21 -28 -36 -58 -15 -30 -37 -70 -47 -88 -11 -18 -18 -38 -15 -43 4
-5 2 -9 -3 -9 -5 0 -15 -12 -23 -27 -8 -16 -18 -31 -24 -35 -6 -5 -4 -8 5 -8
13 0 13 -1 0 -10 -12 -8 -11 -10 7 -10 12 0 25 5 28 10 12 19 26 11 15 -10 -6
-11 -16 -17 -25 -14 -11 4 -15 -1 -15 -16 0 -16 -4 -20 -15 -16 -8 3 -15 1
-15 -4 0 -6 5 -10 10 -10 6 0 10 -12 9 -27 l-1 -28 -8 25 c-8 24 -8 24 -9 2
-1 -12 -7 -21 -13 -20 -8 2 -13 -14 -15 -45 -2 -27 -8 -67 -13 -90 -6 -27 -6
-43 0 -45 6 -2 10 -21 10 -42 0 -21 7 -66 16 -101 13 -50 14 -69 4 -104 -6
-23 -11 -55 -10 -71 5 -64 -2 -159 -9 -134 -7 25 -7 25 -19 -7 -6 -18 -7 -33
-3 -33 4 0 13 -10 19 -22 l11 -23 1 25 c1 23 2 23 10 5 15 -34 11 -57 -10 -62
-20 -5 -20 -5 0 -30 11 -14 20 -32 20 -40 0 -7 10 -27 21 -42 12 -16 19 -34
15 -39 -3 -6 -1 -22 6 -37 9 -19 9 -28 0 -37 -17 -17 -15 -55 4 -62 8 -3 12
-11 8 -17 -8 -14 57 -149 73 -149 16 0 4 -40 -12 -40 -7 0 -16 5 -18 10 -3 6
-4 5 -3 -2 1 -7 12 -17 24 -23 23 -10 31 -58 12 -70 -5 -3 -10 -13 -10 -21 0
-19 36 -18 44 1 3 8 10 15 17 15 6 0 9 -6 6 -14 -3 -8 3 -26 14 -39 13 -18 17
-34 13 -55 -4 -22 2 -47 23 -90 26 -54 30 -59 46 -47 12 8 14 15 8 20 -6 3
-11 13 -11 22 0 8 19 -6 45 -34 35 -38 44 -56 45 -84 0 -20 7 -49 15 -65 9
-19 12 -42 8 -72 -5 -37 -3 -47 12 -58 29 -21 34 -17 28 24 -6 34 -5 36 10 23
9 -7 14 -18 10 -24 -3 -5 -1 -7 4 -4 19 12 30 -16 32 -78 2 -71 29 -159 83
-275 22 -47 47 -116 54 -154 8 -38 19 -77 24 -86 5 -10 6 -20 3 -24 -3 -3 -2
-6 3 -6 6 0 31 -29 57 -64 34 -46 58 -68 87 -80 76 -30 170 -16 220 34 12 12
25 18 29 14 20 -24 141 -212 141 -219 0 -5 6 -16 13 -24 8 -9 24 -43 37 -76
13 -33 36 -88 52 -123 29 -65 35 -87 19 -77 -5 3 -12 1 -16 -5 -8 -12 -35 -13
-35 -1 0 5 10 11 22 15 22 5 22 6 4 19 -11 8 -17 18 -14 23 9 14 -25 77 -43
80 -12 1 -15 -4 -12 -17 3 -10 1 -19 -5 -19 -5 0 -12 11 -14 25 -4 16 -1 25 7
25 8 0 11 8 8 20 -4 15 -11 19 -25 14 -13 -4 -27 2 -41 17 -14 15 -17 24 -9
27 7 2 12 8 12 13 0 5 -9 4 -21 -3 -17 -11 -22 -10 -35 6 -8 11 -14 30 -14 43
0 13 -6 23 -14 23 -8 0 -16 5 -18 10 -2 6 -13 12 -25 13 -18 1 -21 6 -16 29 3
17 1 28 -6 28 -6 0 -11 -4 -11 -8 0 -5 -10 -13 -23 -19 -19 -9 -25 -6 -41 14
-12 16 -25 23 -37 20 -13 -4 -19 0 -19 11 -1 14 -3 14 -12 -3 -11 -19 -11 -19
-19 0 -7 17 -8 18 -8 3 -1 -10 -6 -18 -12 -18 -6 0 -9 6 -6 14 4 10 -4 12 -29
10 -37 -3 -42 3 -18 21 14 10 13 13 -10 29 -16 10 -24 22 -20 29 4 7 4 9 -1 5
-13 -13 -80 31 -93 61 -7 17 -20 28 -30 27 -12 -1 -16 5 -14 22 2 12 -2 22 -7
22 -6 0 -11 7 -11 15 0 8 -6 14 -12 12 -7 -1 -12 6 -10 15 1 10 -6 19 -19 23
-18 6 -21 12 -16 48 7 48 -13 77 -39 56 -11 -9 -18 -9 -26 -1 -6 6 -29 9 -57
5 -36 -4 -50 -1 -60 11 -18 21 -8 31 17 17 12 -6 40 -8 66 -5 37 6 46 11 46
27 0 16 -2 17 -15 7 -13 -11 -21 -11 -43 0 -15 7 -37 17 -50 23 -15 7 -22 17
-19 29 3 10 1 21 -5 24 -7 4 -7 9 0 13 7 4 7 12 3 20 -6 10 -11 5 -16 -18 -3
-17 -11 -31 -17 -31 -6 0 -8 -6 -5 -14 3 -8 -1 -20 -9 -27 -9 -7 -11 -16 -6
-21 15 -15 1 -56 -21 -62 -17 -4 -19 -8 -9 -18 6 -6 12 -21 12 -33 0 -16 -2
-17 -10 -5 -9 13 -10 13 -10 -1 0 -11 -12 -16 -45 -18 -48 -2 -98 18 -114 46
-8 14 -12 15 -25 4 -13 -11 -19 -11 -31 -1 -8 7 -15 19 -15 27 0 8 -4 12 -10
8 -5 -3 -7 -12 -3 -20 3 -9 -1 -15 -11 -15 -9 0 -16 -7 -16 -15 0 -8 6 -12 14
-9 8 3 19 -3 26 -15 6 -12 7 -21 1 -21 -5 0 -11 -6 -14 -12 -2 -7 -3 -5 -2 4
2 11 -2 15 -12 11 -7 -3 -12 -11 -10 -17 7 -18 -12 -46 -31 -46 -9 0 -28 -9
-42 -20 -14 -11 -31 -20 -37 -20 -7 0 -13 -4 -13 -10 0 -5 -7 -7 -15 -4 -21 8
-19 24 3 24 23 0 62 28 62 44 0 7 -11 18 -25 24 -32 15 -35 15 -35 2 0 -5 9
-10 20 -10 24 0 25 -8 4 -35 -11 -14 -18 -16 -21 -7 -3 6 -11 12 -19 12 -10 0
-14 12 -14 38 0 30 -5 39 -25 49 -20 9 -25 8 -25 -3 0 -8 6 -14 14 -14 9 0 12
-8 8 -25 -3 -16 2 -33 13 -45 16 -18 17 -20 2 -20 -10 0 -17 4 -17 9 0 5 -13
9 -30 9 -27 -1 -45 -18 -19 -18 8 0 9 -4 0 -13 -6 -8 -8 -17 -4 -20 3 -4 1 -7
-5 -7 -7 0 -12 5 -12 10 0 6 -5 10 -10 10 -6 0 -10 -8 -8 -17 2 -11 -6 -19
-22 -24 -16 -4 -19 -7 -7 -8 9 -1 17 -8 17 -16 0 -9 10 -15 26 -15 14 0 23 4
19 10 -4 6 -11 7 -17 4 -6 -4 -9 -1 -6 7 3 8 14 13 26 11 16 -2 19 1 15 18 -3
11 0 20 6 20 6 0 11 -9 11 -19 0 -11 4 -22 10 -26 5 -3 7 -12 4 -19 -3 -8 -1
-17 5 -21 6 -3 11 -15 11 -27 0 -16 -3 -18 -14 -9 -7 6 -21 9 -30 5 -9 -3 -23
-1 -31 6 -20 16 -19 3 0 -17 9 -8 24 -13 35 -10 14 3 17 1 13 -11 -5 -12 -1
-14 15 -10 28 8 29 -8 2 -22 -23 -12 -28 -53 -6 -44 8 3 12 12 9 20 -3 8 0 14
6 14 6 0 11 -6 11 -14 0 -8 9 -18 20 -21 11 -3 20 -13 20 -21 0 -22 -28 -47
-45 -40 -9 3 -12 0 -8 -10 3 -8 -1 -14 -8 -14 -8 0 -6 -5 6 -12 19 -12 19 -12
-5 -19 -23 -7 -23 -7 7 -8 17 -1 44 4 59 9 33 13 57 -3 48 -33 -5 -15 -3 -19
10 -14 19 8 33 -12 16 -23 -7 -5 -10 -17 -7 -30 4 -16 -2 -26 -26 -42 -18 -11
-23 -17 -12 -13 11 4 32 10 47 13 23 3 28 1 28 -17 0 -13 7 -21 18 -22 9 0 32
-2 50 -5 35 -4 39 0 18 22 -12 11 -13 21 -4 44 14 40 28 38 28 -4 0 -19 5 -38
10 -41 11 -7 14 58 3 69 -4 3 -8 13 -9 22 -3 17 31 10 57 -12 8 -8 30 -17 48
-20 22 -5 30 -11 27 -21 -4 -8 -6 -24 -6 -35 0 -17 -3 -18 -15 -8 -13 11 -15
6 -15 -37 0 -27 4 -53 8 -58 5 -6 6 -21 1 -35 -4 -15 -7 -18 -8 -8 -1 9 -11
24 -23 32 -18 13 -19 16 -5 16 10 0 17 8 17 20 0 11 -4 20 -10 20 -5 0 -10 -7
-10 -16 0 -10 -6 -14 -15 -11 -8 4 -17 2 -20 -4 -4 -5 -10 -7 -14 -5 -4 3 -7
-14 -7 -37 1 -36 4 -42 23 -45 23 -3 23 -3 -4 -28 -14 -13 -23 -27 -20 -31 4
-3 7 -2 7 2 0 5 6 0 14 -10 13 -18 15 -17 46 15 l32 33 -26 16 c-14 9 -26 21
-26 28 0 18 17 16 24 -2 3 -8 10 -15 16 -15 6 0 18 -7 26 -15 21 -21 31 -19
61 11 25 25 42 27 27 2 -5 -7 -10 -22 -11 -33 -4 -24 -23 -45 -23 -26 0 10 -3
11 -13 3 -7 -6 -22 -9 -34 -6 -11 3 -27 -1 -34 -9 -8 -8 -25 -18 -38 -22 -25
-8 -19 -19 17 -30 16 -5 22 -2 22 9 0 9 5 16 10 16 15 0 12 -19 -5 -36 -8 -8
-18 -22 -23 -30 -11 -20 -41 -7 -53 22 -4 13 -16 24 -25 24 -16 0 -16 -1 -1
-18 10 -10 14 -22 10 -26 -5 -4 -8 -13 -8 -19 0 -7 -10 -16 -22 -22 -12 -5
-24 -22 -27 -38 -5 -26 -7 -27 -22 -13 -8 9 -20 16 -25 16 -5 0 -9 10 -10 23
l0 22 -9 -21 c-5 -12 -13 -25 -19 -28 -6 -4 -8 -13 -4 -21 3 -8 0 -15 -7 -15
-7 0 -9 -8 -5 -20 5 -14 2 -20 -9 -20 -9 0 -16 -4 -16 -10 0 -19 32 -10 37 10
7 27 21 25 25 -3 3 -23 33 -28 73 -12 16 7 15 4 -5 -13 -21 -18 -23 -23 -10
-32 13 -9 13 -11 1 -19 -19 -12 -51 8 -51 31 0 10 -7 18 -16 18 -11 0 -14 -6
-9 -20 4 -11 2 -20 -4 -20 -6 0 -11 -8 -11 -17 1 -17 1 -17 14 0 16 21 26 22
26 3 0 -14 -21 -26 -46 -26 -8 0 -14 8 -14 18 -1 39 -16 45 -46 15 -15 -15
-27 -29 -26 -30 1 -2 2 -9 1 -15 0 -7 -4 -3 -9 10 -13 30 -28 28 -22 -3 2 -14
0 -25 -6 -25 -6 0 -13 -8 -15 -18 -4 -16 -5 -16 -6 1 -1 21 -27 23 -35 2 -9
-23 -31 -18 -67 16 -23 21 -40 29 -56 26 -29 -5 -30 4 -2 21 16 11 18 16 9 27
-7 8 -16 13 -20 10 -12 -8 -41 6 -34 16 3 5 -6 24 -20 42 -14 19 -23 37 -19
41 11 10 12 36 2 36 -5 0 -9 -4 -9 -10 0 -5 -4 -10 -10 -10 -5 0 -10 9 -10 20
0 10 -6 23 -14 27 -8 4 -16 19 -18 33 -2 15 -11 26 -24 30 -17 4 -20 9 -13 25
4 11 8 14 8 8 1 -7 8 -13 17 -13 12 0 14 4 7 12 -15 19 -23 58 -12 58 5 0 9 5
9 10 0 6 -7 10 -15 10 -8 0 -15 -7 -15 -16 0 -8 -4 -13 -10 -9 -5 3 -7 12 -4
19 3 9 -6 15 -27 20 -23 4 -30 10 -25 21 4 10 2 14 -5 9 -8 -5 -10 3 -7 25 2
17 1 31 -4 31 -4 0 -8 -5 -8 -11 0 -8 -5 -7 -15 1 -19 16 -34 5 -17 -12 7 -7
12 -21 12 -32 0 -20 0 -20 -15 0 -8 10 -15 27 -15 37 0 9 -4 17 -10 17 -5 0
-10 6 -10 14 0 16 34 31 50 21 6 -4 10 5 10 20 0 24 3 26 24 21 14 -3 27 -2
30 2 3 5 -8 9 -25 10 -43 1 -48 10 -20 33 l23 19 -23 0 c-12 0 -31 -7 -41 -17
-17 -15 -18 -15 -18 5 0 13 -6 22 -15 22 -19 0 -19 -7 0 -26 22 -23 20 -53 -4
-47 -10 3 -22 0 -25 -6 -10 -16 -23 -14 -30 5 -4 12 -1 14 14 9 11 -4 20 -2
20 4 0 6 -11 11 -24 11 -16 0 -27 7 -31 20 -4 12 -14 19 -23 18 -13 -2 -16 4
-14 30 1 22 -2 32 -12 32 -15 0 -32 -100 -21 -122 4 -7 -1 -4 -9 6 -9 11 -16
33 -16 49 0 25 -3 27 -22 21 -20 -6 -21 -5 -9 10 7 9 20 16 27 16 8 0 14 9 14
20 0 13 -7 20 -20 20 -25 0 -27 20 -2 21 10 0 12 3 4 6 -25 10 -32 40 -17 70
21 40 18 53 -5 23 -19 -24 -19 -53 -19 -1275 0 -1104 1 -1248 14 -1231 8 11
15 29 16 40 0 12 8 44 17 73 17 51 17 52 40 35 19 -15 21 -24 18 -68 -3 -35 1
-63 14 -91 13 -30 15 -43 7 -47 -9 -5 -9 -7 1 -12 15 -7 16 -56 0 -72 -9 -9
-9 -12 0 -12 7 0 12 5 12 10 0 6 6 10 13 9 38 -5 48 9 24 33 -16 16 -16 398 1
473 13 63 31 109 38 102 3 -3 7 -112 9 -244 2 -131 8 -276 14 -323 6 -47 10
-108 10 -135 -1 -28 4 -76 11 -108 11 -45 17 -57 32 -57 16 0 19 5 14 27 -25
122 -47 313 -53 453 -9 239 16 430 82 626 24 71 25 104 5 129 -7 8 -4 17 10
30 19 17 21 17 41 -1 11 -10 19 -14 18 -9 -7 21 11 76 22 70 6 -4 9 -16 6 -26
-3 -10 0 -22 6 -26 7 -3 9 -3 5 2 -4 4 -4 13 2 20 5 6 10 27 11 47 2 29 6 34
22 30 10 -3 16 -10 13 -18 -8 -20 8 -17 29 6 9 10 15 26 12 35 -6 15 32 65 50
65 6 0 17 7 24 16 12 15 11 16 -11 9 -25 -7 -25 -7 -5 12 11 11 29 18 41 15
17 -3 22 1 21 15 -1 12 4 17 15 15 9 -1 19 2 23 7 3 6 12 8 20 4 19 -7 68 24
60 37 -4 6 1 10 10 10 26 0 220 102 267 140 10 8 34 24 52 35 19 11 74 48 122
83 49 35 137 93 195 130 58 37 114 72 125 79 71 45 216 133 219 133 3 0 42 22
87 49 222 130 299 172 308 166 6 -3 10 -2 10 4 0 5 29 24 65 42 49 25 67 31
76 22 9 -9 2 -16 -26 -27 -21 -9 -46 -16 -56 -16 -11 0 -28 -9 -40 -21 -12
-12 -28 -23 -38 -24 -27 -6 -27 -6 -6 -15 16 -7 13 -8 -15 -8 -20 1 -46 -4
-58 -11 -26 -14 -24 -37 2 -35 12 2 14 -1 6 -10 -16 -20 -1 -26 69 -26 l67 0
-2 -72 c0 -45 5 -84 14 -102 8 -17 11 -41 8 -58 -4 -21 0 -37 12 -52 17 -22
17 -21 18 38 2 56 46 210 64 221 4 2 27 -34 51 -81 46 -90 136 -204 209 -267
75 -64 248 -139 350 -153 27 -4 51 -13 54 -20 3 -8 11 -12 18 -9 42 16 128
-66 225 -213 20 -30 45 -57 55 -60 10 -2 18 -10 18 -17 0 -8 16 -35 36 -61 20
-26 43 -62 50 -81 11 -24 21 -33 38 -33 20 0 27 -9 40 -42 35 -98 36 -116 15
-227 -19 -104 -25 -130 -54 -241 -38 -143 -53 -520 -29 -718 l5 -43 295 2
c266 1 294 2 294 17 1 15 3 14 15 -2 21 -27 31 -12 18 27 -6 17 -14 72 -18
122 -4 50 -10 94 -13 99 -3 5 -7 47 -8 93 -2 45 -12 136 -23 200 -11 65 -25
161 -31 213 -6 52 -15 118 -20 145 -6 28 -17 89 -25 137 -7 48 -19 113 -25
145 -26 132 -29 186 -14 222 14 32 13 37 -2 48 -15 11 -15 13 -2 13 13 0 17
20 23 113 6 99 13 137 41 237 4 14 34 54 66 90 32 36 58 73 58 82 0 10 7 18
15 18 8 0 15 4 15 9 0 4 11 20 25 33 14 14 30 41 37 59 6 19 16 40 22 48 13
16 33 72 46 127 13 56 -3 143 -40 220 -17 35 -32 87 -36 120 -9 86 -31 213
-61 346 -26 116 -26 118 -8 160 72 173 70 163 70 403 0 219 0 220 24 239 36
30 61 99 61 171 0 69 -11 109 -39 140 -28 31 -44 87 -29 97 10 6 9 12 -6 23
-20 15 -30 52 -50 182 -9 61 -19 91 -40 118 -23 29 -26 39 -16 48 10 9 11 9 6
0 -3 -6 -1 -15 5 -19 15 -9 2 53 -18 84 -12 20 -17 21 -31 10 -9 -7 -13 -8
-10 -3 3 6 0 15 -6 21 -9 9 -12 3 -13 -22 -1 -19 3 -37 8 -40 5 -3 9 3 9 13 0
15 2 15 9 3 6 -8 7 -18 5 -22 -3 -4 0 -8 5 -8 6 0 11 -5 11 -12 0 -9 -3 -9
-12 0 -7 7 -19 12 -29 12 -27 0 -37 103 -28 302 3 82 7 108 18 108 10 0 12 9
7 38 -9 46 -27 103 -39 120 -7 9 -1 12 24 13 19 0 28 3 22 6 -20 7 -15 21 8
25 21 3 21 3 2 27 -17 20 -18 29 -9 62 5 22 16 39 22 39 21 0 25 17 9 33 -18
19 -19 34 -2 40 9 3 9 8 -3 21 -13 16 -12 20 2 30 16 12 16 14 1 29 -11 11
-16 31 -15 62 2 40 -2 50 -28 73 -16 15 -30 31 -30 37 0 5 -20 33 -45 60 -25
28 -45 55 -45 61 0 19 -27 37 -32 23 -2 -7 -10 -9 -16 -5 -16 10 -15 26 2 26
24 0 25 26 4 66 -22 41 -89 114 -105 114 -5 0 -15 6 -22 13 -6 6 -29 12 -49
12 -26 0 -37 5 -40 17 -2 9 4 18 14 20 17 3 17 4 1 20 -10 9 -22 42 -29 73 -6
33 -21 66 -36 82 -15 16 -25 38 -24 55 0 18 -8 34 -24 47 -25 20 -31 45 -14
56 6 3 10 17 10 30 0 34 -34 41 -139 27 -57 -7 -110 -8 -157 -2 -84 11 -131
29 -112 43 9 6 6 7 -9 4 -22 -5 -22 -3 -18 48 4 46 2 53 -17 62 -27 12 -112
-1 -145 -22 -23 -16 -25 -15 -97 60 l-72 76 -55 -20 c-70 -27 -94 -26 -151 4
-50 26 -61 29 -71 18z m-10 -80 c2 -6 -6 -15 -19 -18 -13 -4 -35 -16 -50 -26
-29 -21 -43 -24 -32 -8 3 6 1 14 -5 18 -7 4 -9 15 -5 25 6 16 8 17 16 2 11
-20 34 -21 42 0 3 8 10 12 16 9 5 -3 10 -1 10 5 0 14 22 8 27 -7z m-1330 -778
c-4 -8 -11 -15 -17 -15 -7 0 -7 6 0 21 13 23 26 19 17 -6z m-120 -417 c-3 -8
-6 -5 -6 6 -1 11 2 17 5 13 3 -3 4 -12 1 -19z m-3 -152 c-8 -34 -16 -27 -20
20 -2 33 -1 35 12 22 10 -10 13 -24 8 -42z m1946 -257 c0 -5 -4 -9 -10 -9 -5
0 -10 7 -10 16 0 8 5 12 10 9 6 -3 10 -10 10 -16z m-183 -87 l13 -32 -32 2
c-22 2 -32 -1 -30 -9 1 -7 -7 -13 -19 -13 -11 0 -27 -6 -35 -14 -7 -8 -19 -17
-26 -19 -10 -4 -9 -8 2 -17 12 -8 8 -9 -15 -4 -16 4 -36 13 -43 21 -7 7 -21
14 -30 14 -9 1 -29 3 -44 4 -18 3 -28 -2 -32 -13 -2 -9 -4 -3 -3 13 2 27 6 31
47 39 25 5 48 14 51 19 4 5 11 7 17 3 6 -3 13 2 17 13 7 23 30 29 99 27 46 -2
51 -4 63 -34z m741 -46 c3 -15 -1 -17 -30 -11 -18 4 -40 11 -48 16 -10 6 -7 7
11 3 16 -3 30 -1 34 6 9 15 29 7 33 -14z m-248 -16 c0 -5 -5 -10 -11 -10 -5 0
-7 5 -4 10 3 6 8 10 11 10 2 0 4 -4 4 -10z m-436 -125 c3 -8 1 -15 -4 -15 -6
0 -10 7 -10 15 0 8 2 15 4 15 2 0 6 -7 10 -15z m478 -61 l19 -22 -96 -17 c-53
-10 -98 -15 -101 -12 -8 8 25 45 75 83 l44 34 20 -22 c11 -13 29 -33 39 -44z
m108 36 c0 -5 -2 -10 -4 -10 -3 0 -8 5 -11 10 -3 6 -1 10 4 10 6 0 11 -4 11
-10z m-72 -12 c-3 -7 -11 -13 -18 -13 -7 0 -15 6 -17 13 -3 7 4 12 17 12 13 0
20 -5 18 -12z m-548 -8 c0 -5 -5 -10 -11 -10 -5 0 -7 5 -4 10 3 6 8 10 11 10
2 0 4 -4 4 -10z m-515 -131 c3 6 12 11 18 11 7 0 4 -5 -6 -11 -9 -6 -15 -14
-12 -18 2 -5 -6 -7 -18 -6 -31 3 -31 3 -18 18 6 8 10 16 8 18 -1 2 3 -2 10 -9
7 -9 13 -10 18 -3z m1025 1 c0 -5 -3 -10 -7 -11 -5 0 -24 -2 -43 -4 -40 -4
-58 4 -39 16 19 12 89 11 89 -1z m-822 -98 c15 -10 6 -42 -12 -42 -6 0 -12 11
-12 25 -2 26 3 30 24 17z m-128 -22 c0 -5 -2 -10 -4 -10 -3 0 -8 5 -11 10 -3
6 -1 10 4 10 6 0 11 -4 11 -10z m-100 -41 c0 -6 10 -19 23 -30 19 -16 20 -20
7 -29 -20 -13 -79 -30 -108 -30 l-22 0 26 43 c14 23 33 47 42 54 16 13 32 9
32 -8z m100 5 c0 -11 -5 -14 -16 -10 -9 3 -18 6 -20 6 -3 0 -2 5 1 10 10 16
35 12 35 -6z m761 -47 c19 -9 44 -27 54 -41 15 -20 29 -26 57 -26 71 0 138
-42 138 -87 l0 -24 -109 7 -109 7 -27 -47 c-25 -44 -29 -46 -71 -46 -36 0 -42
-3 -37 -16 5 -14 3 -15 -18 -4 -21 11 -43 36 -44 50 -1 14 -31 70 -37 70 -4 0
-12 8 -17 18 -11 21 13 99 38 122 44 41 114 47 182 17z m203 -10 c2 3 20 0 38
-5 18 -6 69 -13 113 -17 116 -8 153 -12 165 -20 5 -3 10 -2 10 4 0 7 8 7 26 0
21 -7 31 -6 44 6 18 16 42 12 70 -10 8 -7 30 -15 48 -18 42 -8 65 -30 49 -46
-8 -8 -4 -11 17 -11 15 0 25 -4 21 -10 -3 -5 6 -17 20 -26 14 -9 25 -23 25
-31 0 -8 7 -21 16 -30 15 -16 15 -49 -1 -135 -5 -26 -3 -43 6 -54 10 -13 10
-17 0 -24 -8 -4 -13 -19 -13 -34 0 -14 -4 -26 -9 -26 -5 0 -9 -13 -9 -28 0
-30 -26 -92 -38 -92 -21 1 -44 34 -61 87 -27 84 -75 164 -113 190 -35 23 -200
73 -258 78 -23 2 -39 -3 -47 -14 -12 -14 -15 -14 -34 8 -18 22 -18 26 -4 33
12 8 13 13 3 31 -7 12 -13 24 -13 27 -10 53 -23 75 -67 115 -28 25 -57 45 -65
45 -8 0 -12 4 -8 9 3 6 17 6 34 1 16 -4 32 -6 35 -3z m376 -23 c0 -8 -4 -12
-10 -9 -5 3 -10 10 -10 16 0 5 5 9 10 9 6 0 10 -7 10 -16z m-1300 -74 c0 -5
-8 -10 -17 -10 -15 0 -16 2 -3 10 19 12 20 12 20 0z m459 -105 c39 12 23 -23
-28 -62 -26 -21 -57 -50 -67 -65 -22 -32 -31 -29 -36 15 -4 34 -2 37 33 76 10
12 19 25 19 30 0 13 43 19 51 8 4 -5 16 -6 28 -2z m417 -40 c-14 -13 -28 -35
-32 -49 -4 -19 -13 -26 -31 -26 -14 0 -40 -7 -59 -16 -32 -15 -61 -12 -39 4 6
4 11 18 13 32 4 40 10 50 31 50 11 0 23 5 26 10 3 6 24 10 45 10 21 0 42 5 45
10 4 6 11 8 16 4 6 -3 -1 -16 -15 -29z m-617 -24 c-5 -21 -10 -52 -11 -70 -1
-17 -5 -31 -9 -31 -3 0 -6 -12 -6 -27 0 -135 -6 -168 -38 -213 -18 -25 -36
-55 -39 -67 -8 -24 -26 -32 -26 -12 0 7 -12 9 -30 7 -17 -3 -33 -1 -36 4 -9
15 -24 8 -24 -11 0 -10 -6 -24 -14 -30 -19 -16 -29 11 -27 67 2 34 -1 42 -15
42 -15 0 -16 2 -5 13 11 10 14 10 18 0 3 -7 9 -13 14 -13 5 0 9 6 9 13 0 23
45 106 59 107 10 0 10 4 3 13 -11 12 12 97 29 107 19 13 105 87 129 112 14 15
26 27 26 28 1 0 -2 -17 -7 -39z m441 -81 c0 -5 5 -10 11 -10 16 0 38 -31 39
-54 0 -18 -1 -18 -20 -1 -10 9 -26 15 -35 12 -8 -4 -15 -2 -15 3 0 5 -10 12
-22 16 -22 7 -38 21 -38 37 0 4 18 7 40 7 22 0 40 -4 40 -10z m-253 -16 c2 -7
-9 -15 -24 -18 -15 -4 -37 -10 -47 -13 -15 -4 -13 1 9 21 29 27 55 31 62 10z
m1369 -69 c17 -13 17 -14 2 -15 -10 0 -18 5 -18 11 0 5 -4 7 -10 4 -5 -3 -10
-1 -10 4 0 15 13 14 36 -4z m-1046 -26 c0 -6 -4 -7 -10 -4 -5 3 -10 11 -10 16
0 6 5 7 10 4 6 -3 10 -11 10 -16z m1040 -81 c0 -14 -5 -18 -15 -14 -9 3 -15 0
-15 -9 0 -19 -16 -20 -23 -2 -7 19 7 39 24 35 8 -2 13 3 11 10 -1 8 2 11 8 7
5 -3 10 -15 10 -27z m-1100 -9 c0 -12 78 -8 115 6 17 7 16 5 -4 -13 -13 -12
-33 -23 -45 -23 -46 -3 -116 -4 -116 -1 0 1 6 11 12 22 14 22 38 27 38 9z
m825 -79 c3 -5 -3 -10 -14 -10 -11 0 -23 5 -26 10 -3 6 3 10 14 10 11 0 23 -4
26 -10z m-510 -79 c0 -11 -20 -25 -77 -53 -10 -4 -26 -8 -36 -8 -10 0 -22 -3
-26 -7 -4 -5 -11 -9 -14 -9 -20 -4 -72 -30 -72 -36 0 -4 -20 -8 -45 -8 -48 0
-55 9 -29 34 14 15 28 20 47 17 4 0 16 8 28 20 12 12 27 18 37 14 9 -3 30 0
47 8 43 20 118 45 130 42 6 -1 10 -7 10 -14z m125 -100 c0 -27 -15 -41 -41
-41 -36 0 -38 16 -4 24 14 4 25 11 25 16 0 6 5 10 10 10 6 0 10 -4 10 -9z
m-1769 -54 c4 -17 4 -25 -2 -21 -6 3 -16 0 -24 -6 -14 -11 -14 -6 -6 53 2 18
25 -1 32 -26z m1429 13 c0 -9 44 -7 108 6 12 2 22 0 22 -5 0 -5 -10 -13 -22
-16 -34 -10 -88 -39 -88 -47 0 -5 -13 -8 -30 -8 -35 0 -36 2 -14 35 9 13 13
29 9 35 -3 5 -1 10 4 10 6 0 11 -5 11 -10z m470 -16 c0 -7 6 -14 13 -17 8 -3
7 -10 -7 -26 -11 -11 -15 -21 -9 -21 19 0 8 -40 -20 -75 -15 -19 -36 -35 -45
-35 -10 0 -23 -5 -29 -11 -6 -6 -42 -17 -80 -24 -134 -26 -173 -36 -200 -50
-15 -8 -35 -15 -43 -15 -8 0 -26 -6 -40 -13 -30 -15 -86 -7 -82 13 2 7 -3 17
-10 22 -11 6 -10 10 1 17 11 7 11 9 0 13 -15 5 58 78 78 78 7 0 13 5 13 10 0
5 3 9 8 8 17 -5 95 14 118 28 21 14 28 13 26 -6 -1 -5 10 -6 81 -2 19 2 43 18
76 52 26 27 58 53 71 58 35 13 80 11 80 -4z m-2280 -84 c0 -5 -6 -10 -14 -10
-8 0 -18 5 -21 10 -3 6 3 10 14 10 12 0 21 -4 21 -10z m0 -80 c0 -23 -15 -27
-27 -6 -4 7 -15 16 -23 19 -8 3 0 6 18 6 26 1 32 -3 32 -19z m-301 -43 c-2 -2
-16 -7 -31 -11 -21 -5 -28 -3 -28 8 0 24 32 37 49 21 8 -8 13 -16 10 -18z m39
-106 c3 -8 -1 -12 -9 -9 -7 2 -15 10 -17 17 -3 8 1 12 9 9 7 -2 15 -10 17 -17z
m2303 2 c25 -5 26 -7 23 -66 -4 -65 -15 -84 -55 -93 -75 -17 -110 -6 -131 43
-16 35 -16 36 10 69 16 20 33 32 41 29 17 -7 43 14 34 28 -4 6 4 7 23 3 16 -4
41 -10 55 -13z m-2525 -43 c0 -17 -7 -20 -41 -19 -38 1 -38 2 -10 8 17 4 29
12 28 19 -2 7 3 12 10 12 7 0 13 -9 13 -20z m-119 4 c-3 -3 -12 -4 -19 -1 -8
3 -5 6 6 6 11 1 17 -2 13 -5z m18 -34 c-3 -5 -12 -10 -18 -10 -7 0 -6 4 3 10
19 12 23 12 15 0z m795 0 c0 -5 -2 -10 -4 -10 -3 0 -8 5 -11 10 -3 6 -1 10 4
10 6 0 11 -4 11 -10z m-773 -32 c-3 -7 -5 -2 -5 12 0 14 2 19 5 13 2 -7 2 -19
0 -25z m2857 -3 c3 -8 1 -15 -4 -15 -6 0 -10 7 -10 15 0 8 2 15 4 15 2 0 6 -7
10 -15z m-454 -5 c0 -5 -7 -10 -16 -10 -8 0 -12 5 -9 10 3 6 10 10 16 10 5 0
9 -4 9 -10z m-2398 -38 c-7 -2 -10 -8 -7 -12 8 -13 -6 -63 -15 -53 -12 12 -16
56 -7 70 4 7 15 9 24 6 11 -4 13 -8 5 -11z m2758 8 c0 -5 -6 -10 -14 -10 -8 0
-18 5 -21 10 -3 6 3 10 14 10 12 0 21 -4 21 -10z m-1893 -6 c-3 -3 -12 -4 -19
-1 -8 3 -5 6 6 6 11 1 17 -2 13 -5z m1973 -4 c0 -5 -4 -10 -10 -10 -5 0 -10 5
-10 10 0 6 5 10 10 10 6 0 10 -4 10 -10z m-2733 -6 c-3 -3 -12 -4 -19 -1 -8 3
-5 6 6 6 11 1 17 -2 13 -5z m-30 -56 c-3 -8 -6 -5 -6 6 -1 11 2 17 5 13 3 -3
4 -12 1 -19z m870 -14 c-3 -3 -12 -4 -19 -1 -8 3 -5 6 6 6 11 1 17 -2 13 -5z
m-627 -8 c0 -11 -19 -15 -25 -6 -3 5 1 10 9 10 9 0 16 -2 16 -4z m-190 -60 c0
-14 -29 -30 -38 -21 -3 3 0 5 6 5 7 0 12 7 12 15 0 8 5 15 10 15 6 0 10 -6 10
-14z m-100 -15 c0 -12 -20 -25 -27 -18 -7 7 6 27 18 27 5 0 9 -4 9 -9z m40
-16 c7 -8 8 -15 2 -15 -5 0 -15 7 -22 15 -7 8 -8 15 -2 15 5 0 15 -7 22 -15z
m258 -37 c5 -18 6 -41 4 -51 -7 -27 -34 -16 -38 16 -2 22 1 27 12 23 8 -3 14
1 14 9 0 8 -4 15 -10 15 -5 0 -10 5 -10 10 0 23 20 7 28 -22z m-168 -23 c-7
-8 -17 -15 -23 -15 -6 0 -2 8 9 19 22 21 33 19 14 -4z m1080 -20 c0 -8 -4 -15
-10 -15 -5 0 -10 7 -10 15 0 8 5 15 10 15 6 0 10 -7 10 -15z m-1045 -24 c-6
-21 -35 -30 -35 -11 0 6 7 10 15 10 8 0 15 8 15 17 0 9 3 14 6 10 3 -3 3 -15
-1 -26z m-75 -36 c0 -8 -4 -15 -10 -15 -5 0 -10 7 -10 15 0 8 5 15 10 15 6 0
10 -7 10 -15z m40 -55 c0 -5 -2 -10 -4 -10 -3 0 -8 5 -11 10 -3 6 -1 10 4 10
6 0 11 -4 11 -10z m-833 -22 c-3 -8 -6 -5 -6 6 -1 11 2 17 5 13 3 -3 4 -12 1
-19z m1103 -12 c0 -2 -9 -6 -20 -9 -11 -3 -20 -1 -20 4 0 5 9 9 20 9 11 0 20
-2 20 -4z m970 -81 c0 -2 -7 -5 -15 -9 -9 -3 -15 0 -15 9 0 9 6 12 15 9 8 -4
15 -7 15 -9z m-1140 -20 c-7 -9 -15 -13 -18 -10 -3 2 1 11 8 20 7 9 15 13 18
10 3 -2 -1 -11 -8 -20z m150 6 c0 -6 -4 -13 -10 -16 -5 -3 -10 1 -10 9 0 9 5
16 10 16 6 0 10 -4 10 -9z m934 -16 c-10 -8 -23 -14 -29 -14 -5 0 -1 6 9 14
11 8 24 15 30 15 5 0 1 -7 -10 -15z m-864 -75 c0 -5 -5 -10 -11 -10 -5 0 -7 5
-4 10 3 6 8 10 11 10 2 0 4 -4 4 -10z m-922 -19 c3 -8 -1 -12 -9 -9 -7 2 -15
10 -17 17 -3 8 1 12 9 9 7 -2 15 -10 17 -17z m890 -18 c-10 -2 -26 -2 -35 0
-10 3 -2 5 17 5 19 0 27 -2 18 -5z m-58 -47 c0 -3 -4 -8 -10 -11 -5 -3 -10 -1
-10 4 0 6 5 11 10 11 6 0 10 -2 10 -4z m2488 -28 c-2 -13 -6 -25 -10 -28 -4
-3 -8 -22 -9 -41 -3 -32 -5 -35 -27 -31 -22 4 -48 -5 -116 -40 -15 -8 -22 -7
-31 5 -6 9 -16 13 -21 9 -13 -9 -36 -66 -32 -78 5 -15 -42 -55 -55 -47 -7 4
-21 6 -32 5 -12 -2 -31 8 -43 21 -30 32 -22 75 17 83 14 3 38 12 52 19 14 8
29 12 33 8 3 -3 6 -1 6 5 0 7 10 12 23 12 12 0 53 16 90 35 38 19 75 35 82 35
8 0 22 11 31 25 21 32 46 33 42 3z m422 -9 c0 -5 -4 -9 -10 -9 -5 0 -10 7 -10
16 0 8 5 12 10 9 6 -3 10 -10 10 -16z m-1924 -2 c4 -4 0 -7 -9 -7 -9 0 -18 4
-21 9 -7 10 20 9 30 -2z m-1108 -67 c3 -21 2 -22 -12 -11 -19 16 -21 44 -3 39
6 -3 14 -15 15 -28z m-45 -10 c-3 -11 -9 -20 -14 -20 -10 0 -12 33 -3 43 12
12 22 -3 17 -23z m76 -26 c2 -2 -10 -4 -27 -4 -18 0 -32 5 -32 10 0 9 47 4 59
-6z m-639 -14 c0 -5 -9 -10 -19 -10 -11 0 -23 5 -26 10 -4 6 5 10 19 10 14 0
26 -4 26 -10z m3630 0 c0 -5 -4 -10 -10 -10 -5 0 -10 5 -10 10 0 6 5 10 10 10
6 0 10 -4 10 -10z m-2990 -9 c0 -5 -16 -9 -35 -9 -19 0 -35 4 -35 9 0 5 16 9
35 9 19 0 35 -4 35 -9z m-614 -56 c-17 -17 -21 -9 -10 20 5 11 10 13 17 6 6
-6 4 -15 -7 -26z m3534 -11 c0 -9 -5 -14 -12 -12 -18 6 -21 28 -4 28 9 0 16
-7 16 -16z m65 -4 c-3 -5 -10 -10 -16 -10 -5 0 -9 5 -9 10 0 6 7 10 16 10 8 0
12 -4 9 -10z m-1300 -50 c3 -5 -1 -10 -9 -10 -9 0 -16 5 -16 10 0 6 4 10 9 10
6 0 13 -4 16 -10z m1062 -111 c-12 -23 -29 -44 -37 -48 -8 -3 -16 -17 -18 -30
-1 -14 -4 -27 -7 -29 -2 -3 -98 -15 -212 -28 -114 -13 -237 -28 -273 -33 -55
-9 -67 -8 -83 7 -18 16 -14 17 94 23 104 6 128 11 274 61 88 30 176 65 195 77
19 11 43 21 53 21 9 0 17 5 17 10 0 6 4 10 9 10 6 0 0 -19 -12 -41z m-3144 16
c4 -8 2 -17 -3 -20 -6 -4 -10 3 -10 14 0 25 6 27 13 6z m2787 5 c0 -5 -7 -13
-17 -18 -10 -6 -14 -16 -10 -26 5 -12 0 -16 -23 -16 -19 0 -29 5 -27 13 1 6
-5 11 -13 9 -10 -2 -6 6 9 22 24 25 81 37 81 16z m30 -59 c0 -6 -7 -8 -15 -5
-8 4 -15 15 -15 26 0 17 2 18 15 4 8 -8 15 -19 15 -25z m-2835 19 c3 -5 1 -10
-4 -10 -6 0 -11 5 -11 10 0 6 2 10 4 10 3 0 8 -4 11 -10z m2165 0 c0 -5 -2
-10 -4 -10 -3 0 -8 5 -11 10 -3 6 -1 10 4 10 6 0 11 -4 11 -10z m145 -20 c3
-5 -3 -10 -14 -10 -12 0 -21 5 -21 10 0 6 6 10 14 10 8 0 18 -4 21 -10z m925
-5 c0 -8 -7 -15 -15 -15 -8 0 -15 7 -15 15 0 8 7 15 15 15 8 0 15 -7 15 -15z
m-1195 -25 c3 -5 -1 -10 -9 -10 -9 0 -16 5 -16 10 0 6 4 10 9 10 6 0 13 -4 16
-10z m1110 -60 c3 -5 -3 -10 -15 -10 -12 0 -18 5 -15 10 3 6 10 10 15 10 5 0
12 -4 15 -10z m-120 -50 c3 -5 -3 -10 -14 -10 -12 0 -21 5 -21 10 0 6 6 10 14
10 8 0 18 -4 21 -10z m-255 -20 c0 -5 -7 -10 -15 -10 -8 0 -15 5 -15 10 0 6 7
10 15 10 8 0 15 -4 15 -10z m-2460 -24 c0 -10 -162 -97 -173 -93 -7 2 13 17
43 32 30 16 69 36 85 46 31 17 45 22 45 15z m2203 -11 c1 -5 -6 -11 -15 -13
-11 -2 -18 3 -18 13 0 17 30 18 33 0z m402 -5 c3 -6 -1 -13 -10 -16 -19 -8
-30 0 -20 15 8 14 22 14 30 1z m245 0 c0 -5 -7 -10 -15 -10 -8 0 -15 5 -15 10
0 6 7 10 15 10 8 0 15 -4 15 -10z m-510 -35 c0 -8 -4 -15 -9 -15 -13 0 -22 16
-14 24 11 11 23 6 23 -9z m403 -20 c1 -5 -6 -11 -15 -13 -11 -2 -18 3 -18 13
0 17 30 18 33 0z m-253 -25 c0 -5 -9 -10 -20 -10 -11 0 -20 5 -20 10 0 6 9 10
20 10 11 0 20 -4 20 -10z m360 -46 c0 -8 -5 -12 -10 -9 -6 4 -8 11 -5 16 9 14
15 11 15 -7z m-605 -4 c3 -5 -1 -10 -10 -10 -9 0 -13 5 -10 10 3 6 8 10 10 10
2 0 7 -4 10 -10z m385 0 c0 -5 -9 -10 -21 -10 -11 0 -17 5 -14 10 3 6 13 10
21 10 8 0 14 -4 14 -10z m-2906 -26 c3 -8 2 -12 -4 -9 -6 3 -10 10 -10 16 0
14 7 11 14 -7z m2664 -16 c-7 -19 -38 -22 -38 -4 0 10 9 16 21 16 12 0 19 -5
17 -12z m382 -18 c0 -5 -9 -10 -20 -10 -11 0 -20 5 -20 10 0 6 9 10 20 10 11
0 20 -4 20 -10z m-242 -32 c-3 -7 -11 -13 -18 -13 -7 0 -15 6 -17 13 -3 7 4
12 17 12 13 0 20 -5 18 -12z m142 -53 c0 -8 -6 -15 -14 -15 -17 0 -28 14 -19
24 12 12 33 6 33 -9z m-230 -56 c0 -5 -7 -9 -15 -9 -8 0 -15 7 -15 15 0 9 6
12 15 9 8 -4 15 -10 15 -15z m360 -3 c0 -11 -19 -15 -25 -6 -3 5 1 10 9 10 9
0 16 -2 16 -4z m-222 -38 c-7 -19 -38 -22 -38 -4 0 10 9 16 21 16 12 0 19 -5
17 -12z m222 -24 c0 -8 -7 -14 -15 -14 -8 0 -15 9 -15 20 0 13 5 18 15 14 8
-4 15 -12 15 -20z m-125 -14 c3 -5 -1 -10 -9 -10 -9 0 -16 5 -16 10 0 6 4 10
9 10 6 0 13 -4 16 -10z m-3335 -45 c-27 -28 -40 -32 -40 -10 0 15 26 34 49 35
10 0 7 -8 -9 -25z m3298 -78 c2 -10 -3 -17 -12 -17 -10 0 -16 9 -16 21 0 24
23 21 28 -4z m110 0 c2 -10 -3 -17 -12 -17 -10 0 -16 9 -16 21 0 24 23 21 28
-4z m112 13 c0 -5 -4 -10 -10 -10 -5 0 -10 5 -10 10 0 6 5 10 10 10 6 0 10 -4
10 -10z m-30 -125 c7 -9 10 -18 7 -21 -10 -11 -37 5 -37 21 0 19 14 19 30 0z
m-130 -26 c0 -18 -2 -19 -15 -9 -8 7 -15 16 -15 21 0 5 7 9 15 9 9 0 15 -9 15
-21z m-120 -4 c0 -8 -7 -15 -15 -15 -8 0 -15 7 -15 15 0 8 7 15 15 15 8 0 15
-7 15 -15z m320 -112 c0 -13 -3 -13 -15 -3 -8 7 -12 16 -9 21 8 13 24 1 24
-18z m-120 -19 c0 -8 -4 -14 -10 -14 -12 0 -31 35 -23 44 9 8 33 -14 33 -30z
m-122 3 c2 -10 -3 -17 -12 -17 -18 0 -29 16 -21 31 9 14 29 6 33 -14z m-148
-17 c0 -5 -2 -10 -4 -10 -3 0 -8 5 -11 10 -3 6 -1 10 4 10 6 0 11 -4 11 -10z
m357 -95 c3 -9 3 -19 -1 -22 -7 -7 -36 16 -36 28 0 15 30 10 37 -6z m-133 -11
c8 -22 8 -24 -8 -24 -15 0 -28 24 -19 34 11 10 21 7 27 -10z m-146 -17 c2 -10
-3 -17 -12 -17 -10 0 -16 9 -16 21 0 24 23 21 28 -4z m342 -102 c0 -8 -4 -15
-10 -15 -5 0 -10 7 -10 15 0 8 5 15 10 15 6 0 10 -7 10 -15z m-122 -19 c3 -12
-1 -17 -10 -14 -7 3 -15 13 -16 22 -3 12 1 17 10 14 7 -3 15 -13 16 -22z
m-140 -9 c2 -10 -3 -17 -12 -17 -10 0 -16 9 -16 21 0 24 23 21 28 -4z m-150
-14 c-4 -22 -22 -20 -26 1 -2 10 3 16 13 16 10 0 15 -7 13 -17z m-43 -61 c0
-18 -20 -15 -23 4 -3 10 1 15 10 12 7 -3 13 -10 13 -16z m415 -42 c0 -13 -5
-18 -15 -14 -8 4 -15 12 -15 20 0 8 7 14 15 14 8 0 15 -9 15 -20z m-140 -10
c0 -11 -7 -20 -15 -20 -8 0 -15 9 -15 20 0 11 7 20 15 20 8 0 15 -9 15 -20z
m-155 -13 c0 -26 -20 -25 -23 2 -3 16 1 22 10 19 7 -3 13 -12 13 -21z m365
-113 c0 -8 -4 -12 -10 -9 -5 3 -10 13 -10 21 0 8 5 12 10 9 6 -3 10 -13 10
-21z m-132 -8 c3 -12 -1 -17 -10 -14 -7 3 -15 13 -16 22 -3 12 1 17 10 14 7
-3 15 -13 16 -22z m-148 -7 c0 -24 -23 -21 -28 4 -2 10 3 17 12 17 10 0 16 -9
16 -21z m-160 -19 c0 -13 -5 -18 -15 -14 -8 4 -15 12 -15 20 0 8 7 14 15 14 8
0 15 -9 15 -20z m-50 -60 c0 -11 -7 -20 -15 -20 -8 0 -15 9 -15 20 0 11 7 20
15 20 8 0 15 -9 15 -20z m438 -43 c2 -10 -3 -17 -12 -17 -10 0 -16 9 -16 21 0
24 23 21 28 -4z m-150 -11 c3 -12 -1 -17 -10 -14 -7 3 -15 13 -16 22 -3 12 1
17 10 14 7 -3 15 -13 16 -22z m-154 -2 c9 -23 8 -24 -14 -24 -19 0 -27 20 -13
33 11 11 20 8 27 -9z m370 -110 c4 -9 4 -19 2 -21 -8 -8 -26 8 -26 23 0 19 16
18 24 -2z m-136 -17 c2 -10 -3 -17 -12 -17 -10 0 -16 9 -16 21 0 24 23 21 28
-4z m-154 -3 c7 -19 -2 -37 -15 -29 -12 8 -12 45 0 45 5 0 12 -7 15 -16z
m-154 -25 c0 -24 -23 -21 -28 4 -2 10 3 17 12 17 10 0 16 -9 16 -21z m-70 -69
c0 -21 -15 -27 -25 -10 -7 12 2 30 16 30 5 0 9 -9 9 -20z"/>
<path d="M3282 3371 c-10 -6 -10 -10 2 -20 17 -14 36 -7 36 15 0 15 -18 18
-38 5z"/>
<path d="M3414 2195 c-19 -14 -18 -14 4 -15 13 0 22 6 22 15 0 19 -1 19 -26 0z"/>
<path d="M1190 6701 c0 -5 5 -13 10 -16 6 -3 10 -2 10 4 0 5 -4 13 -10 16 -5
3 -10 2 -10 -4z"/>
<path d="M1167 6639 c7 -7 15 -10 18 -7 3 3 -2 9 -12 12 -14 6 -15 5 -6 -5z"/>
<path d="M755 6539 c-8 -24 -2 -32 25 -34 15 -1 20 4 19 24 0 24 -1 24 -9 6
-7 -16 -9 -17 -9 -3 -1 26 -19 31 -26 7z"/>
<path d="M975 6520 c-3 -5 1 -10 10 -10 9 0 13 5 10 10 -3 6 -8 10 -10 10 -2
0 -7 -4 -10 -10z"/>
<path d="M1018 6503 c7 -3 16 -2 19 1 4 3 -2 6 -13 5 -11 0 -14 -3 -6 -6z"/>
<path d="M720 6496 c0 -2 7 -9 15 -16 12 -10 15 -10 15 4 0 9 -7 16 -15 16 -8
0 -15 -2 -15 -4z"/>
<path d="M780 6480 c0 -5 5 -10 11 -10 5 0 7 5 4 10 -3 6 -8 10 -11 10 -2 0
-4 -4 -4 -10z"/>
<path d="M841 6473 c1 -10 -1 -26 -6 -36 -11 -25 3 -34 19 -12 7 10 18 15 24
11 21 -13 13 16 -10 35 -26 23 -30 24 -27 2z"/>
<path d="M915 6480 c-3 -5 1 -10 10 -10 9 0 13 5 10 10 -3 6 -8 10 -10 10 -2
0 -7 -4 -10 -10z"/>
<path d="M804 6445 c-5 -20 -13 -25 -38 -26 l-31 -2 29 -4 c20 -3 25 -7 17
-13 -8 -5 1 -10 26 -15 21 -4 44 -12 52 -18 11 -10 13 -9 9 3 -2 8 -14 20 -27
25 -18 8 -21 16 -17 37 7 35 -11 47 -20 13z"/>
<path d="M954 6424 c3 -9 6 -18 6 -20 0 -2 7 -4 15 -4 8 0 15 9 15 20 0 14 -7
20 -21 20 -15 0 -19 -4 -15 -16z"/>
<path d="M893 6403 c-7 -3 -13 -12 -13 -21 0 -11 3 -13 8 -6 4 7 16 13 27 16
15 3 17 5 5 9 -8 3 -21 4 -27 2z"/>
<path d="M890 6360 c-12 -8 -11 -10 7 -10 12 0 30 -3 40 -7 16 -6 16 -5 4 10
-15 19 -29 21 -51 7z"/>
<path d="M790 6340 c0 -5 -11 -10 -25 -10 -14 0 -25 -5 -25 -11 0 -8 11 -9 31
-5 17 3 35 6 40 6 5 0 9 7 9 15 0 8 -7 15 -15 15 -8 0 -15 -4 -15 -10z"/>
<path d="M713 6309 c-2 -23 3 -25 10 -4 4 8 3 16 -1 19 -4 3 -9 -4 -9 -15z"/>
<path d="M850 6320 c0 -5 7 -10 16 -10 8 0 12 5 9 10 -3 6 -10 10 -16 10 -5 0
-9 -4 -9 -10z"/>
<path d="M746 6291 c-3 -5 -2 -19 2 -32 9 -23 9 -23 14 4 5 27 -5 46 -16 28z"/>
<path d="M780 6276 c0 -10 7 -24 15 -32 13 -14 15 -13 15 4 0 11 -7 25 -15 32
-12 10 -15 9 -15 -4z"/>
<path d="M966 6237 c3 -10 9 -15 12 -12 3 3 0 11 -7 18 -10 9 -11 8 -5 -6z"/>
<path d="M484 6125 c-2 -29 -1 -30 20 -9 17 16 13 34 -7 34 -7 0 -13 -11 -13
-25z"/>
<path d="M485 6079 c-11 -17 0 -20 21 -4 17 13 17 14 2 15 -9 0 -20 -5 -23
-11z"/>
<path d="M548 6073 c6 -2 18 -2 25 0 6 3 1 5 -13 5 -14 0 -19 -2 -12 -5z"/>
<path d="M514 6020 c0 -11 4 -20 8 -20 4 0 8 9 8 20 0 11 -4 20 -8 20 -4 0 -8
-9 -8 -20z"/>
<path d="M430 5984 c0 -9 5 -14 12 -12 18 6 21 28 4 28 -9 0 -16 -7 -16 -16z"/>
<path d="M465 5900 c10 -11 22 -17 27 -14 5 3 1 12 -9 20 -27 20 -39 17 -18
-6z"/>
<path d="M265 5780 c-19 -8 -19 -9 3 -9 12 -1 22 4 22 9 0 6 -1 10 -2 9 -2 0
-12 -4 -23 -9z"/>
<path d="M313 5726 c0 -18 3 -24 9 -18 7 7 7 16 0 28 -8 14 -9 13 -9 -10z"/>
<path d="M275 5721 c-3 -5 -1 -12 5 -16 5 -3 10 1 10 9 0 18 -6 21 -15 7z"/>
<path d="M401 5694 c0 -11 3 -14 6 -6 3 7 2 16 -1 19 -3 4 -6 -2 -5 -13z"/>
<path d="M3 5665 c0 -8 4 -15 8 -15 4 0 9 7 13 15 3 9 0 15 -8 15 -7 0 -13 -7
-13 -15z"/>
<path d="M234 5638 c-1 -34 2 -38 25 -39 17 -1 20 -3 9 -6 -21 -5 -24 -23 -4
-23 19 0 48 29 41 40 -3 5 -12 7 -20 4 -23 -9 -30 24 -10 46 17 19 17 19 -11
17 -27 -2 -30 -5 -30 -39z"/>
<path d="M194 5655 c3 -9 0 -15 -10 -15 -11 0 -14 -6 -10 -16 3 -9 6 -18 6
-20 0 -2 8 -4 18 -4 14 0 18 8 17 35 0 23 -5 35 -14 35 -8 0 -11 -6 -7 -15z"/>
<path d="M341 5604 c0 -11 3 -14 6 -6 3 7 2 16 -1 19 -3 4 -6 -2 -5 -13z"/>
<path d="M45 5600 c3 -5 14 -10 23 -10 15 0 15 2 2 10 -20 13 -33 13 -25 0z"/>
<path d="M116 5585 c4 -8 10 -15 15 -15 5 0 9 7 9 15 0 8 -7 15 -15 15 -9 0
-12 -6 -9 -15z"/>
<path d="M152 5560 c0 -14 2 -19 5 -12 2 6 2 18 0 25 -3 6 -5 1 -5 -13z"/>
<path d="M95 5550 c3 -5 8 -10 11 -10 2 0 4 5 4 10 0 6 -5 10 -11 10 -5 0 -7
-4 -4 -10z"/>
<path d="M120 5548 c0 -9 5 -20 10 -23 13 -8 13 5 0 25 -8 13 -10 13 -10 -2z"/>
<path d="M280 5540 c0 -5 4 -10 9 -10 6 0 13 5 16 10 3 6 -1 10 -9 10 -9 0
-16 -4 -16 -10z"/>
<path d="M195 5500 c-3 -5 -1 -10 4 -10 6 0 11 5 11 10 0 6 -2 10 -4 10 -3 0
-8 -4 -11 -10z"/>
<path d="M130 5485 c0 -8 5 -15 10 -15 6 0 10 7 10 15 0 8 -4 15 -10 15 -5 0
-10 -7 -10 -15z"/>
<path d="M245 5481 c-3 -5 -1 -12 5 -16 5 -3 10 1 10 9 0 18 -6 21 -15 7z"/>
<path d="M160 5450 c0 -19 3 -21 12 -12 9 9 9 15 0 24 -9 9 -12 7 -12 -12z"/>
<path d="M127 5446 c-3 -8 1 -20 9 -26 11 -10 14 -9 14 8 0 25 -16 37 -23 18z"/>
<path d="M380 5406 c0 -8 5 -18 10 -21 6 -3 10 3 10 14 0 12 -4 21 -10 21 -5
0 -10 -6 -10 -14z"/>
<path d="M286 5355 c4 -8 8 -15 10 -15 2 0 4 7 4 15 0 8 -4 15 -10 15 -5 0 -7
-7 -4 -15z"/>
<path d="M341 5274 c-12 -14 -11 -16 4 -12 10 1 20 9 23 16 5 17 -10 15 -27
-4z"/>
<path d="M270 5200 c-8 -5 -12 -12 -9 -15 4 -3 12 1 19 10 14 17 11 19 -10 5z"/>
<path d="M20 5139 c-7 -11 -10 -23 -7 -25 6 -6 37 25 37 37 0 17 -19 9 -30
-12z"/>
<path d="M50 5099 c0 -5 5 -7 10 -4 6 3 10 8 10 11 0 2 -4 4 -10 4 -5 0 -10
-5 -10 -11z"/>
<path d="M10 5090 c0 -5 5 -10 10 -10 6 0 10 5 10 10 0 6 -4 10 -10 10 -5 0
-10 -4 -10 -10z"/>
<path d="M80 5085 c0 -8 -3 -15 -7 -15 -5 0 -9 -11 -9 -25 -3 -45 -12 -58 -39
-53 -17 4 -25 1 -25 -8 0 -8 5 -14 10 -14 6 0 10 -5 10 -11 0 -5 -4 -7 -10 -4
-18 11 -12 -83 7 -105 21 -24 35 -26 31 -4 -2 10 3 19 11 22 11 4 13 -2 8 -27
-4 -18 -2 -31 3 -31 6 0 10 11 10 25 0 18 5 25 19 25 11 0 22 -6 25 -12 3 -7
5 -4 3 7 -1 12 -11 21 -25 23 -12 2 -22 11 -23 20 0 14 -2 14 -8 -2 -5 -12
-10 -16 -14 -9 -4 6 -4 18 -1 27 3 9 1 16 -5 16 -6 0 -11 12 -11 26 0 14 4 23
10 19 16 -10 50 5 50 22 0 10 -6 13 -16 9 -11 -4 -15 -2 -11 8 10 27 19 86 13
86 -3 0 -6 -7 -6 -15z"/>
<path d="M175 5090 c3 -5 10 -10 16 -10 5 0 9 5 9 10 0 6 -7 10 -16 10 -8 0
-12 -4 -9 -10z"/>
<path d="M0 5050 c0 -5 7 -10 15 -10 8 0 15 5 15 10 0 6 -7 10 -15 10 -8 0
-15 -4 -15 -10z"/>
<path d="M167 5035 c3 -8 9 -12 14 -9 12 7 11 11 -5 17 -10 4 -13 1 -9 -8z"/>
<path d="M115 5030 c-3 -5 -1 -10 4 -10 6 0 11 5 11 10 0 6 -2 10 -4 10 -3 0
-8 -4 -11 -10z"/>
<path d="M130 4988 c0 -9 5 -20 11 -23 17 -11 18 -2 3 19 -12 17 -14 17 -14 4z"/>
<path d="M93 4963 c-18 -7 -16 -30 2 -37 11 -4 14 1 13 19 -1 14 -3 25 -3 24
0 0 -6 -3 -12 -6z"/>
<path d="M137 4893 c-3 -5 1 -14 9 -21 12 -11 14 -9 14 8 0 20 -14 27 -23 13z"/>
<path d="M280 4875 c0 -8 5 -15 10 -15 6 0 10 4 10 10 0 5 7 6 17 3 11 -4 14
-3 9 5 -10 17 -46 15 -46 -3z"/>
<path d="M182 4873 c9 -2 19 -16 21 -31 4 -24 4 -24 6 6 1 27 -2 32 -21 31
-16 -1 -18 -3 -6 -6z"/>
<path d="M155 4840 c-3 -5 1 -10 10 -10 9 0 13 5 10 10 -3 6 -8 10 -10 10 -2
0 -7 -4 -10 -10z"/>
<path d="M231 4819 c-9 -26 -6 -39 10 -39 6 0 7 5 4 10 -3 6 -2 10 4 10 5 0
12 -6 15 -12 3 -7 3 -2 0 12 -10 39 -22 46 -33 19z"/>
<path d="M94 4815 c3 -9 0 -15 -9 -15 -9 0 -15 -9 -14 -22 1 -17 2 -19 6 -5 3
11 14 17 34 17 16 0 29 5 29 10 0 6 -7 10 -15 10 -8 0 -15 5 -15 10 0 6 -5 10
-11 10 -6 0 -9 -7 -5 -15z"/>
<path d="M3 4661 c-1 -129 2 -159 12 -155 7 3 16 12 19 20 3 9 11 12 17 8 8
-5 8 -9 -1 -14 -7 -4 -9 -13 -6 -19 11 -18 26 -13 26 9 0 32 25 13 26 -20 1
-35 2 -35 -43 -13 -30 14 -36 14 -44 2 -13 -20 -11 -39 4 -39 8 0 7 -4 -3 -11
-11 -8 -12 -12 -2 -16 6 -2 10 -9 6 -14 -3 -5 4 -9 14 -9 12 0 22 9 25 21 4
16 11 19 26 14 17 -5 21 -2 21 14 0 22 24 29 35 11 9 -15 25 -12 25 5 0 8 -6
15 -12 15 -9 0 -8 4 2 10 13 9 13 12 -3 21 -9 5 -17 14 -17 19 0 12 26 13 33
3 2 -5 2 -3 1 4 -2 7 1 15 5 18 5 3 4 23 -1 45 -8 29 -16 40 -29 40 -11 0 -19
3 -19 8 0 15 -49 64 -59 57 -6 -3 -21 1 -33 9 -21 15 -21 16 -3 18 11 0 25 1
32 1 6 0 9 6 6 13 -6 17 -15 18 -31 2 -6 -6 -15 -8 -19 -4 -5 4 4 17 20 28 15
11 27 23 27 27 0 6 -43 31 -54 31 -1 0 -3 -72 -3 -159z m57 -51 c0 -5 -4 -10
-10 -10 -5 0 -10 5 -10 10 0 6 5 10 10 10 6 0 10 -4 10 -10z m63 -20 c-3 -11
-9 -20 -14 -20 -5 0 -9 9 -9 20 0 11 6 20 14 20 9 0 12 -7 9 -20z m-74 -26
c-6 -8 -17 -14 -23 -14 -6 0 -4 5 4 10 8 5 11 10 7 10 -5 0 -5 5 -2 10 4 6 11
8 16 4 6 -4 6 -11 -2 -20z m111 6 c0 -5 -2 -10 -4 -10 -3 0 -8 5 -11 10 -3 6
-1 10 4 10 6 0 11 -4 11 -10z m-33 -16 c-3 -3 -12 -4 -19 -1 -8 3 -5 6 6 6 11
1 17 -2 13 -5z m-47 -104 c0 -5 -7 -10 -16 -10 -8 0 -12 5 -9 10 3 6 10 10 16
10 5 0 9 -4 9 -10z"/>
<path d="M102 4723 c-10 -4 -10 -8 -1 -19 15 -19 22 -18 37 6 10 17 10 20 -5
19 -10 0 -24 -3 -31 -6z"/>
<path d="M250 4713 c0 -7 5 -13 10 -13 6 0 10 5 10 11 0 5 5 7 10 4 6 -3 10
-2 10 4 0 5 -9 9 -20 8 -11 -1 -20 -7 -20 -14z"/>
<path d="M156 4672 c-2 -4 -1 -14 5 -22 7 -12 9 -10 9 8 0 23 -5 28 -14 14z"/>
<path d="M240 4645 c0 -8 4 -15 10 -15 5 0 7 7 4 15 -4 8 -8 15 -10 15 -2 0
-4 -7 -4 -15z"/>
<path d="M215 4580 c3 -5 8 -10 11 -10 2 0 4 5 4 10 0 6 -5 10 -11 10 -5 0 -7
-4 -4 -10z"/>
<path d="M161 4374 c0 -11 3 -14 6 -6 3 7 2 16 -1 19 -3 4 -6 -2 -5 -13z"/>
<path d="M161 4334 c0 -11 3 -14 6 -6 3 7 2 16 -1 19 -3 4 -6 -2 -5 -13z"/>
<path d="M108 4303 c-18 -5 -40 -65 -32 -87 7 -19 34 -15 34 6 0 10 -4 18 -10
18 -5 0 -10 7 -10 15 0 8 9 15 20 15 13 0 20 7 20 20 0 11 -1 19 -2 19 -2 -1
-11 -3 -20 -6z"/>
<path d="M1 4243 c-1 -36 1 -38 29 -23 20 11 21 41 0 48 -9 3 -11 -1 -7 -12 4
-9 2 -16 -3 -16 -5 0 -11 8 -13 18 -3 9 -5 2 -6 -15z"/>
<path d="M33 4213 c-20 -8 -15 -23 7 -23 11 0 20 7 20 15 0 15 -6 17 -27 8z"/>
<path d="M142 4190 c0 -19 2 -27 5 -17 2 9 2 25 0 35 -3 9 -5 1 -5 -18z"/>
<path d="M0 4113 c0 -45 3 -53 19 -53 24 0 33 23 21 55 -7 17 -5 28 4 38 12
12 10 14 -15 14 -28 0 -29 -1 -29 -54z"/>
<path d="M68 4079 c-10 -6 -18 -17 -18 -24 0 -9 -10 -15 -25 -15 -24 0 -25 -2
-25 -69 0 -54 3 -70 16 -75 25 -10 32 1 29 42 -1 20 0 25 2 10 2 -16 9 -28 14
-28 16 0 40 -28 30 -34 -4 -3 -8 -32 -8 -63 0 -32 2 -43 4 -25 5 39 18 41 31
5 12 -32 14 -25 16 75 1 64 -2 70 -22 50 -17 -17 -27 -1 -15 25 7 14 8 30 3
38 -7 10 -11 8 -19 -11 l-10 -25 2 28 c1 19 7 27 19 27 10 0 18 5 18 10 0 6
-3 9 -7 8 -8 -3 -13 5 -13 22 0 6 11 8 28 4 25 -7 26 -6 13 10 -8 9 -20 15
-27 12 -7 -3 -14 -1 -16 4 -2 5 -11 4 -20 -1z"/>
<path d="M161 4044 c0 -11 3 -14 6 -6 3 7 2 16 -1 19 -3 4 -6 -2 -5 -13z"/>
<path d="M180 4010 c0 -5 7 -10 16 -10 8 0 12 5 9 10 -3 6 -10 10 -16 10 -5 0
-9 -4 -9 -10z"/>
<path d="M137 3993 c-10 -9 -9 -23 2 -23 5 0 11 7 15 15 5 15 -5 20 -17 8z"/>
<path d="M15 3871 c-3 -5 -1 -12 5 -16 5 -3 10 1 10 9 0 18 -6 21 -15 7z"/>
<path d="M0 3761 c0 -62 3 -82 13 -78 7 2 11 17 9 38 -2 19 -4 51 -5 71 -5 72
-17 50 -17 -31z"/>
<path d="M90 3670 c-8 -5 -32 -7 -52 -3 l-38 6 1 -262 c0 -146 4 -261 9 -261
16 0 22 21 10 35 -10 12 -9 15 5 15 15 0 17 6 12 37 -4 20 -12 40 -19 44 -10
7 -10 11 0 21 6 6 12 20 12 29 0 18 17 35 26 26 3 -2 -1 -16 -7 -31 -14 -30
-6 -44 15 -27 8 7 16 8 18 4 8 -15 -4 -103 -14 -103 -5 0 -3 -7 6 -15 8 -8 19
-15 25 -15 6 0 13 -11 17 -25 3 -14 13 -25 21 -25 12 0 13 3 4 13 -6 8 -8 17
-4 21 4 4 2 10 -4 14 -8 5 -5 14 8 31 17 21 19 21 19 5 1 -18 1 -18 15 0 8 10
21 16 29 13 17 -7 30 8 21 23 -4 7 -12 7 -25 0 -20 -11 -33 -1 -22 16 4 6 23
15 42 22 l35 12 -36 -5 c-39 -6 -46 3 -54 67 -2 21 2 28 18 30 11 2 22 9 25
16 5 16 -40 16 -56 0 -9 -9 -12 -8 -12 6 0 9 5 14 10 11 6 -3 10 1 10 9 0 8
-5 18 -10 21 -8 5 -7 11 1 21 9 11 8 14 -5 14 -9 0 -16 -7 -16 -15 0 -8 -5
-15 -11 -15 -6 0 -9 7 -5 15 3 8 1 15 -4 15 -6 0 -10 -9 -10 -20 0 -11 4 -20
9 -20 5 0 8 -16 6 -36 -2 -26 3 -42 17 -56 20 -20 20 -20 -1 -39 -27 -25 -34
-24 -29 6 3 13 1 22 -4 19 -5 -3 -7 16 -4 42 5 50 -8 89 -25 79 -5 -4 -9 4 -9
17 0 19 2 20 10 8 8 -13 11 -11 16 8 4 12 10 22 15 22 5 0 4 8 -2 19 -7 10 -9
26 -5 36 5 14 9 15 22 4 13 -11 15 -9 12 14 -2 14 -12 35 -22 45 -17 19 -16
21 6 36 24 17 5 23 -22 6z m-50 -39 c0 -6 -4 -13 -10 -16 -5 -3 -10 1 -10 9 0
9 5 16 10 16 6 0 10 -4 10 -9z m66 -33 c-9 -5 -21 -6 -26 -3 -6 3 -10 1 -10
-6 0 -7 -3 -9 -6 -6 -13 12 17 35 38 30 18 -5 18 -7 4 -15z m-56 -8 c0 -5 -4
-10 -10 -10 -5 0 -10 5 -10 10 0 6 5 10 10 10 6 0 10 -4 10 -10z m-16 -62 c4
-17 2 -28 -4 -28 -5 0 -10 14 -10 32 0 36 4 35 14 -4z m46 -4 c0 -8 -19 -13
-24 -6 -3 5 1 9 9 9 8 0 15 -2 15 -3z m50 -254 c0 -5 -2 -10 -4 -10 -3 0 -8 5
-11 10 -3 6 -1 10 4 10 6 0 11 -4 11 -10z m0 -60 c0 -5 -5 -10 -11 -10 -5 0
-7 5 -4 10 3 6 8 10 11 10 2 0 4 -4 4 -10z"/>
<path d="M1320 3645 c0 -8 -7 -15 -15 -15 -25 0 -17 -17 10 -22 22 -5 25 -2
25 23 0 16 -4 29 -10 29 -5 0 -10 -7 -10 -15z"/>
<path d="M1160 3604 c0 -8 5 -12 10 -9 6 3 10 10 10 16 0 5 -4 9 -10 9 -5 0
-10 -7 -10 -16z"/>
<path d="M1208 3563 c7 -3 16 -2 19 1 4 3 -2 6 -13 5 -11 0 -14 -3 -6 -6z"/>
<path d="M168 3513 c7 -3 16 -2 19 1 4 3 -2 6 -13 5 -11 0 -14 -3 -6 -6z"/>
<path d="M335 3458 c11 -54 16 -68 25 -68 5 0 7 7 4 15 -4 9 0 15 10 15 20 0
20 0 0 38 -21 44 -48 43 -39 0z"/>
<path d="M407 3474 c-15 -15 -6 -32 13 -27 12 3 19 10 17 16 -4 14 -21 19 -30
11z"/>
<path d="M1071 3464 c0 -11 3 -14 6 -6 3 7 2 16 -1 19 -3 4 -6 -2 -5 -13z"/>
<path d="M285 3440 c3 -5 14 -10 23 -10 15 0 15 2 2 10 -20 13 -33 13 -25 0z"/>
<path d="M440 3431 c0 -8 -7 -11 -15 -7 -8 3 -15 1 -15 -3 0 -5 7 -12 15 -15
16 -6 33 19 21 31 -3 4 -6 1 -6 -6z"/>
<path d="M1175 3420 c4 -6 11 -8 16 -5 5 4 9 -1 9 -10 0 -9 5 -13 10 -10 8 5
7 11 -1 21 -13 16 -44 19 -34 4z"/>
<path d="M295 3410 c-3 -5 3 -10 14 -10 12 0 21 5 21 10 0 6 -6 10 -14 10 -8
0 -18 -4 -21 -10z"/>
<path d="M990 3386 c0 -9 5 -16 10 -16 6 0 10 4 10 9 0 6 -4 13 -10 16 -5 3
-10 -1 -10 -9z"/>
<path d="M270 3380 c0 -5 12 -10 28 -9 24 0 25 1 7 9 -27 12 -35 12 -35 0z"/>
<path d="M380 3369 c0 -5 5 -7 10 -4 6 3 10 8 10 11 0 2 -4 4 -10 4 -5 0 -10
-5 -10 -11z"/>
<path d="M1030 3370 c0 -5 4 -10 9 -10 5 0 18 -3 28 -6 16 -6 16 -5 -2 9 -23
19 -35 21 -35 7z"/>
<path d="M241 3352 c-1 -20 12 -56 25 -71 5 -6 33 31 34 44 0 6 -4 4 -9 -4
-12 -19 -38 0 -44 32 -4 21 -4 21 -6 -1z"/>
<path d="M485 3330 c-3 -5 1 -10 9 -10 9 0 16 5 16 10 0 6 -4 10 -9 10 -6 0
-13 -4 -16 -10z"/>
<path d="M876 3313 c-6 -14 -5 -15 5 -6 7 7 10 15 7 18 -3 3 -9 -2 -12 -12z"/>
<path d="M1105 3320 c4 -6 11 -8 16 -5 14 9 11 15 -7 15 -8 0 -12 -5 -9 -10z"/>
<path d="M50 3240 c0 -5 5 -10 11 -10 5 0 7 5 4 10 -3 6 -8 10 -11 10 -2 0 -4
-4 -4 -10z"/>
<path d="M242 3218 c6 -18 28 -21 28 -4 0 9 -7 16 -16 16 -9 0 -14 -5 -12 -12z"/>
<path d="M537 3223 c-11 -11 -8 -24 6 -22 6 1 21 1 31 0 20 -1 20 -1 0 -15
-23 -17 -16 -27 13 -20 16 5 21 13 21 35 -1 26 -5 29 -33 29 -17 0 -35 -3 -38
-7z"/>
<path d="M184 3179 c-3 -6 -1 -16 5 -22 8 -8 11 -5 11 11 0 24 -5 28 -16 11z"/>
<path d="M493 3123 c9 -2 17 -9 17 -14 0 -6 5 -7 11 -3 14 8 -8 24 -31 23 -11
-1 -10 -3 3 -6z"/>
<path d="M80 3101 c0 -9 41 -33 47 -27 3 2 2 9 -1 14 -7 12 -46 23 -46 13z"/>
<path d="M465 3100 c-3 -5 -1 -10 4 -10 6 0 11 5 11 10 0 6 -2 10 -4 10 -3 0
-8 -4 -11 -10z"/>
<path d="M153 3090 c5 -21 57 -26 57 -6 0 14 -3 14 -20 4 -17 -11 -22 -10 -31
2 -9 13 -10 13 -6 0z"/>
<path d="M500 3080 c-12 -8 -10 -10 8 -10 13 0 20 4 17 10 -7 12 -6 12 -25 0z"/>
<path d="M584 3064 c3 -9 6 -18 6 -20 0 -2 10 -3 23 -3 16 1 18 2 5 6 -10 2
-18 11 -18 19 0 8 -5 14 -11 14 -6 0 -8 -7 -5 -16z"/>
<path d="M13 3043 c-7 -2 -13 -19 -12 -36 0 -18 3 -26 6 -19 8 19 23 14 23 -8
0 -33 17 -22 24 15 10 50 -3 64 -41 48z"/>
<path d="M71 2998 c1 -19 17 -55 18 -40 1 6 6 12 12 12 5 0 8 -4 5 -9 -3 -5 3
-19 13 -32 10 -13 21 -31 24 -39 3 -8 6 0 6 18 1 17 -4 32 -10 32 -6 0 -8 7
-5 16 9 24 -12 54 -39 54 -14 0 -25 -6 -24 -12z"/>
<path d="M187 2959 c7 -7 15 -10 18 -7 3 3 -2 9 -12 12 -14 6 -15 5 -6 -5z"/>
<path d="M2 2930 c0 -14 2 -19 5 -12 2 6 2 18 0 25 -3 6 -5 1 -5 -13z"/>
<path d="M80 2908 c0 -9 6 -19 13 -21 7 -4 6 -6 -5 -6 -9 -1 -19 5 -21 12 -4
9 -6 9 -6 -1 -1 -18 28 -27 42 -13 8 8 7 15 -6 28 -15 16 -17 16 -17 1z"/>
<path d="M162 2900 c0 -14 2 -19 5 -12 2 6 2 18 0 25 -3 6 -5 1 -5 -13z"/>
<path d="M189 2918 c-8 -15 -4 -48 5 -45 14 5 21 47 7 47 -6 0 -12 -1 -12 -2z"/>
<path d="M240 2900 c0 -5 5 -10 11 -10 5 0 7 5 4 10 -3 6 -8 10 -11 10 -2 0
-4 -4 -4 -10z"/>
<path d="M2091 2874 c0 -11 3 -14 6 -6 3 7 2 16 -1 19 -3 4 -6 -2 -5 -13z"/>
<path d="M40 2850 c0 -5 5 -10 10 -10 6 0 10 5 10 10 0 6 -4 10 -10 10 -5 0
-10 -4 -10 -10z"/>
<path d="M202 2825 c0 -16 2 -22 5 -12 2 9 2 23 0 30 -3 6 -5 -1 -5 -18z"/>
<path d="M90 2800 c20 -13 33 -13 25 0 -3 6 -14 10 -23 10 -15 0 -15 -2 -2
-10z"/>
<path d="M720 2789 c0 -12 6 -16 20 -12 11 3 17 9 14 14 -3 5 4 9 14 9 11 0
22 -7 26 -15 8 -21 23 -19 29 4 4 17 -1 19 -49 19 -45 -1 -54 -4 -54 -19z"/>
<path d="M310 2751 c0 -5 5 -13 10 -16 6 -3 10 -2 10 4 0 5 -4 13 -10 16 -5 3
-10 2 -10 -4z"/>
<path d="M151 2722 c-1 -28 1 -31 13 -20 8 7 10 15 6 18 -4 3 -10 12 -13 20
-3 8 -6 0 -6 -18z"/>
<path d="M228 2723 c7 -3 16 -2 19 1 4 3 -2 6 -13 5 -11 0 -14 -3 -6 -6z"/>
<path d="M1060 2680 c0 -36 3 -40 25 -40 23 0 25 4 25 40 0 36 -2 40 -25 40
-22 0 -25 -4 -25 -40z"/>
<path d="M340 2670 c0 -13 20 -13 40 0 12 8 9 10 -12 10 -16 0 -28 -4 -28 -10z"/>
<path d="M865 2664 c-19 -19 -15 -27 9 -18 9 3 16 12 16 20 0 18 -5 18 -25 -2z"/>
<path d="M4146 2643 c-9 -21 6 -36 51 -51 21 -8 47 -17 58 -23 24 -11 204 -76
260 -94 61 -19 271 -96 450 -165 318 -122 296 -114 307 -99 8 11 9 11 4 -3 -4
-13 4 -20 32 -29 20 -6 43 -16 50 -22 8 -6 12 -6 12 1 0 6 -5 14 -10 17 -8 5
-7 11 1 21 6 8 10 16 8 17 -7 4 -63 29 -84 37 -38 14 -110 44 -152 62 -23 10
-47 18 -52 18 -6 0 -34 11 -63 25 -29 13 -100 40 -158 60 -58 20 -113 41 -123
46 -29 16 -407 145 -534 182 -46 14 -52 14 -57 0z m27 -17 c4 -10 1 -13 -9 -9
-15 6 -19 23 -5 23 5 0 11 -7 14 -14z m57 -16 c0 -5 -9 -10 -21 -10 -11 0 -17
5 -14 10 3 6 13 10 21 10 8 0 14 -4 14 -10z"/>
<path d="M810 2631 c0 -6 5 -13 10 -16 6 -3 10 1 10 9 0 9 -4 16 -10 16 -5 0
-10 -4 -10 -9z"/>
<path d="M975 2620 c-3 -6 1 -13 10 -16 19 -8 30 0 20 15 -8 14 -22 14 -30 1z"/>
<path d="M335 2610 c3 -5 8 -10 11 -10 2 0 4 5 4 10 0 6 -5 10 -11 10 -5 0 -7
-4 -4 -10z"/>
<path d="M850 2591 c0 -6 5 -13 10 -16 6 -3 10 1 10 9 0 9 -4 16 -10 16 -5 0
-10 -4 -10 -9z"/>
<path d="M353 2555 c-22 -24 -14 -36 12 -19 14 9 22 20 19 25 -7 12 -17 11
-31 -6z"/>
<path d="M898 2538 c4 -17 2 -20 -11 -15 -10 4 -17 2 -17 -3 0 -6 17 -10 38
-9 20 0 31 3 25 6 -7 2 -13 13 -13 24 0 10 -6 19 -14 19 -10 0 -12 -7 -8 -22z"/>
<path d="M935 2550 c-3 -5 -1 -10 4 -10 6 0 11 5 11 10 0 6 -2 10 -4 10 -3 0
-8 -4 -11 -10z"/>
<path d="M988 2528 c9 -9 15 -9 24 0 9 9 7 12 -12 12 -19 0 -21 -3 -12 -12z"/>
<path d="M366 2515 c4 -8 10 -12 15 -9 11 6 2 24 -11 24 -5 0 -7 -7 -4 -15z"/>
<path d="M988 2483 c7 -3 16 -2 19 1 4 3 -2 6 -13 5 -11 0 -14 -3 -6 -6z"/>
<path d="M942 2458 c-21 -43 -25 -71 -11 -66 8 3 16 20 19 38 4 30 6 31 19 17
15 -19 31 -14 31 10 0 10 -6 13 -17 9 -9 -4 -19 -2 -23 4 -4 6 -11 1 -18 -12z"/>
<path d="M880 2410 c0 -5 7 -10 16 -10 8 0 12 5 9 10 -3 6 -10 10 -16 10 -5 0
-9 -4 -9 -10z"/>
<path d="M428 2403 c7 -3 16 -2 19 1 4 3 -2 6 -13 5 -11 0 -14 -3 -6 -6z"/>
<path d="M961 2373 c-1 -18 4 -33 9 -33 6 0 10 -4 10 -10 0 -5 -9 -10 -20 -10
-14 0 -20 -7 -20 -22 1 -20 2 -21 13 -7 7 8 20 18 30 22 16 6 16 9 4 34 -8 16
-17 35 -20 43 -3 8 -6 0 -6 -17z"/>
<path d="M870 2380 c-8 -5 -12 -11 -9 -14 2 -3 11 -1 19 4 8 5 12 11 9 14 -2
3 -11 1 -19 -4z"/>
<path d="M538 2373 c12 -2 22 -10 21 -16 -1 -7 -1 -21 0 -32 1 -18 2 -19 12
-3 14 25 -6 58 -34 57 l-22 -2 23 -4z"/>
<path d="M690 2354 c0 -8 5 -12 10 -9 6 4 8 11 5 16 -9 14 -15 11 -15 -7z"/>
<path d="M500 2335 c0 -8 2 -15 4 -15 2 0 6 7 10 15 3 8 1 15 -4 15 -6 0 -10
-7 -10 -15z"/>
<path d="M762 2339 c2 -7 10 -15 17 -17 8 -3 12 1 9 9 -2 7 -10 15 -17 17 -8
3 -12 -1 -9 -9z"/>
<path d="M875 2340 c-3 -5 -1 -10 4 -10 6 0 11 5 11 10 0 6 -2 10 -4 10 -3 0
-8 -4 -11 -10z"/>
<path d="M469 2335 c-9 -8 1 -45 12 -45 4 0 11 5 14 10 3 6 2 10 -4 10 -5 0
-11 7 -13 16 -2 9 -6 13 -9 9z"/>
<path d="M700 2283 c0 -17 4 -35 10 -38 6 -3 7 1 4 9 -4 11 0 16 11 16 9 0 15
5 13 11 -2 6 -7 10 -12 9 -5 -1 -13 4 -17 12 -6 9 -9 2 -9 -19z"/>
<path d="M833 2273 c-21 -3 -33 -10 -33 -19 0 -9 6 -14 13 -11 6 2 22 1 33 -4
18 -6 23 -3 27 17 2 13 1 23 -2 22 -3 0 -21 -3 -38 -5z"/>
<path d="M650 2255 c0 -8 -7 -15 -15 -15 -8 0 -15 -7 -15 -15 0 -13 3 -13 20
-3 17 11 29 48 15 48 -3 0 -5 -7 -5 -15z"/>
<path d="M750 2251 c0 -10 19 -25 25 -20 1 2 -3 10 -11 17 -8 7 -14 8 -14 3z"/>
<path d="M540 2229 c-7 -11 -9 -23 -6 -27 3 -3 6 0 6 7 0 8 7 11 15 7 10 -4
15 1 15 14 0 26 -16 25 -30 -1z"/>
<path d="M1820 2195 c-7 -9 -8 -15 -2 -15 5 0 12 7 16 15 3 8 4 15 2 15 -2 0
-9 -7 -16 -15z"/>
<path d="M5372 2191 c-11 -6 -10 -10 3 -15 10 -3 15 -13 12 -20 -8 -21 73 -56
231 -101 21 -6 22 -5 10 14 -7 12 -16 21 -21 21 -4 0 -5 -4 -2 -10 3 -5 -1
-10 -9 -10 -10 0 -13 6 -9 15 6 18 -23 55 -44 55 -7 0 -35 11 -61 24 -59 29
-93 38 -110 27z"/>
<path d="M2050 2086 c0 -2 7 -7 16 -10 8 -3 12 -2 9 4 -6 10 -25 14 -25 6z"/>
<path d="M5654 2059 c-10 -17 27 -35 54 -26 4 1 6 6 4 10 -1 5 7 6 18 2 11 -3
20 -2 20 3 0 5 -14 12 -31 16 -44 9 -57 8 -65 -5z m36 -9 c0 -5 -7 -7 -15 -4
-8 4 -15 8 -15 10 0 2 7 4 15 4 8 0 15 -4 15 -10z"/>
<path d="M2101 2033 c13 -15 10 -16 -36 -11 -50 6 -85 -4 -85 -23 0 -6 8 -8
18 -5 10 4 33 -1 52 -10 26 -13 37 -14 51 -5 25 15 59 14 59 -2 0 -8 9 -22 19
-31 19 -17 19 -17 12 16 -15 66 -36 88 -83 88 -18 0 -19 -2 -7 -17z"/>
<path d="M5762 2045 c4 -4 0 -14 -9 -20 -15 -11 -15 -13 6 -25 18 -9 22 -9 16
0 -5 9 -1 10 16 5 34 -10 51 -29 19 -21 -14 4 20 -16 75 -44 57 -30 101 -47
103 -41 2 6 7 9 10 7 4 -2 12 2 19 9 9 9 -1 18 -43 37 -52 25 -67 25 -42 0 17
-17 -10 -15 -42 3 -25 14 -25 14 -2 15 12 0 22 5 22 11 0 6 -9 9 -19 6 -14 -3
-18 -1 -14 9 4 10 -3 14 -21 14 -14 0 -26 4 -26 9 0 5 -8 11 -17 14 -10 2 -27
8 -38 12 -11 5 -17 5 -13 0z m216 -112 c15 -3 19 -8 12 -13 -15 -9 -61 0 -54
11 6 11 11 11 42 2z"/>
<path d="M2210 1916 c0 -2 8 -10 18 -17 15 -13 16 -12 3 4 -13 16 -21 21 -21
13z"/>
<path d="M6020 1895 c0 -15 18 -40 24 -34 3 3 -1 14 -9 25 -8 10 -14 15 -15 9z"/>
<path d="M6098 1794 c26 -30 38 -38 40 -27 6 23 -32 68 -56 69 -19 1 -17 -4
16 -42z"/>
<path d="M6150 1734 c1 -13 29 -48 34 -43 2 2 -4 15 -15 28 -10 13 -19 19 -19
15z"/>
<path d="M3070 1680 c20 -13 33 -13 25 0 -3 6 -14 10 -23 10 -15 0 -15 -2 -2
-10z"/>
<path d="M1095 1610 c-10 -11 -13 -20 -7 -20 6 0 16 9 22 20 6 11 9 20 7 20
-2 0 -12 -9 -22 -20z"/>
<path d="M1033 1593 c9 -2 23 -2 30 0 6 3 -1 5 -18 5 -16 0 -22 -2 -12 -5z"/>
<path d="M859 1547 c-25 -12 -59 -32 -76 -44 -17 -13 -34 -23 -38 -23 -4 0
-33 -19 -64 -42 -31 -24 -68 -51 -81 -60 l-25 -17 27 0 c15 -1 29 -5 32 -10 7
-10 -18 -34 -27 -25 -6 6 -102 -42 -124 -62 -6 -7 -9 -15 -6 -18 4 -4 -14 -26
-40 -51 -50 -47 -62 -66 -25 -41 31 22 43 20 46 -9 1 -16 -3 -25 -13 -25 -22
0 -59 -40 -47 -52 6 -6 24 8 50 37 37 42 44 46 72 40 16 -4 30 -2 30 3 0 5 20
8 45 8 51 -1 62 9 70 64 3 19 17 57 30 83 14 26 22 53 19 59 -4 6 -3 8 4 4 6
-3 12 3 14 16 2 15 13 24 35 30 19 5 45 24 64 48 18 22 41 42 51 46 20 6 68
47 68 58 0 12 -46 4 -91 -17z"/>
<path d="M3210 1476 c36 -14 55 -12 45 5 -4 5 -23 9 -43 8 l-37 -1 35 -12z"/>
<path d="M6370 1321 c0 -6 11 -23 25 -38 l26 -28 -18 37 c-17 36 -33 49 -33
29z"/>
<path d="M6426 1233 c-4 -9 -3 -20 2 -25 4 -4 9 4 10 17 2 29 -3 32 -12 8z"/>
<path d="M6440 1188 c0 -3 7 -19 15 -34 8 -16 15 -22 15 -14 -1 8 -7 24 -15
34 -8 11 -15 17 -15 14z"/>
<path d="M6500 1069 c0 -15 33 -99 37 -95 6 6 -16 78 -28 91 -5 5 -9 7 -9 4z"/>
<path d="M6547 966 c-3 -8 1 -22 8 -33 8 -10 15 -13 15 -6 0 6 -4 14 -10 18
-5 3 -7 12 -3 20 3 8 3 15 0 15 -3 0 -7 -6 -10 -14z"/>
<path d="M365 795 c7 -136 22 -251 38 -280 5 -11 14 -33 18 -50 11 -43 37
-117 49 -137 6 -10 10 -26 10 -36 0 -10 4 -22 9 -28 19 -19 51 -120 51 -161 0
-24 5 -43 10 -43 6 0 10 -9 10 -20 0 -11 -4 -20 -10 -20 -5 0 -10 -4 -10 -10
0 -5 20 -10 45 -10 42 0 45 2 40 22 -3 13 -7 46 -9 73 -5 60 -14 88 -58 185
-19 41 -45 109 -57 150 -13 41 -27 80 -32 86 -18 23 -70 205 -83 292 -7 51
-17 96 -21 100 -4 4 -4 -47 0 -113z"/>
<path d="M6597 830 c3 -11 7 -20 9 -20 2 0 4 9 4 20 0 11 -4 20 -9 20 -5 0 -7
-9 -4 -20z"/>
<path d="M6640 724 c0 -18 52 -165 57 -160 3 2 -7 40 -22 83 -27 77 -35 95
-35 77z"/>
<path d="M6707 525 c-4 -8 -2 -17 3 -20 6 -4 10 3 10 14 0 25 -6 27 -13 6z"/>
<path d="M6721 487 c-2 -17 31 -118 36 -113 4 4 -1 34 -12 66 -8 22 -24 53
-24 47z"/>
<path d="M6761 349 c-1 -9 6 -32 14 -50 10 -23 14 -28 14 -14 0 25 -27 86 -28
64z"/>
<path d="M6792 240 c0 -14 2 -19 5 -12 2 6 2 18 0 25 -3 6 -5 1 -5 -13z"/>
<path d="M6800 201 c0 -6 4 -13 10 -16 6 -3 7 1 4 9 -7 18 -14 21 -14 7z"/>
<path d="M6826 120 c7 -38 11 -46 19 -38 3 3 -2 20 -10 39 l-16 34 7 -35z"/>
<path d="M130 124 c0 -8 5 -12 10 -9 6 3 10 10 10 16 0 5 -4 9 -10 9 -5 0 -10
-7 -10 -16z"/>
<path d="M129 74 c-2 -42 2 -58 14 -66 18 -11 27 14 11 30 -11 10 -12 18 -4
27 7 9 6 16 -5 25 -13 11 -15 8 -16 -16z"/>
<path d="M6840 58 c1 -7 8 -24 16 -38 8 -14 13 -17 10 -7 -3 10 -6 27 -6 38 0
10 -4 19 -10 19 -5 0 -10 -6 -10 -12z"/>
<path d="M0 15 c0 -8 5 -15 10 -15 6 0 10 7 10 15 0 8 -4 15 -10 15 -5 0 -10
-7 -10 -15z"/>
</g>
</svg>
